<svg viewBox="0 0 91 41" fill="none" xmlns="http://www.w3.org/2000/svg">
<path d="M19.4987 31.384C15.3157 28.969 13.8825 23.6202 16.2976 19.4372C18.7126 15.2543 24.0614 13.8211 28.2444 16.2361" stroke="url(#paint0_linear_1283_6272)" stroke-width="1.5" stroke-linecap="round"/>
<path d="M17.2773 35.1847C11.0089 31.5656 8.86115 23.5501 12.4802 17.2817C16.0993 11.0132 24.1148 8.8655 30.3833 12.4846" stroke="url(#paint1_linear_1283_6272)" stroke-width="1.5" stroke-linecap="round"/>
<path d="M14.851 38.2767C6.64887 33.5412 3.83863 23.0533 8.5741 14.8512C13.3096 6.6491 23.7975 3.83886 31.9996 8.57433" stroke="url(#paint2_linear_1283_6272)" stroke-linecap="round"/>
<circle cx="22" cy="11" r="1.5" fill="#312B3B" stroke="#F7579F"/>
<circle cx="12" cy="29" r="1.5" fill="#312B3B" stroke="#C631BC"/>
<circle cx="10" cy="13" r="1.65" fill="#312B3B" stroke="#ED3795" stroke-width="0.7"/>
<path d="M33.254 29.331V32H22.595V29.892L28.596 22.769H22.748V20.1H32.999V22.208L26.998 29.331H33.254ZM40.6295 32.238C39.3715 32.238 38.2381 31.9717 37.2295 31.439C36.2321 30.9063 35.4445 30.1697 34.8665 29.229C34.2998 28.2883 34.0165 27.2287 34.0165 26.05C34.0165 24.8713 34.2998 23.8117 34.8665 22.871C35.4445 21.9303 36.2321 21.1937 37.2295 20.661C38.2381 20.1283 39.3715 19.862 40.6295 19.862C41.8875 19.862 43.0151 20.1283 44.0125 20.661C45.0211 21.1937 45.8088 21.9303 46.3755 22.871C46.9535 23.8117 47.2425 24.8713 47.2425 26.05C47.2425 27.2287 46.9535 28.2883 46.3755 29.229C45.8088 30.1697 45.0211 30.9063 44.0125 31.439C43.0151 31.9717 41.8875 32.238 40.6295 32.238ZM40.6295 29.45C41.2301 29.45 41.7741 29.3083 42.2615 29.025C42.7488 28.7417 43.1341 28.345 43.4175 27.835C43.7008 27.3137 43.8425 26.7187 43.8425 26.05C43.8425 25.3813 43.7008 24.792 43.4175 24.282C43.1341 23.7607 42.7488 23.3583 42.2615 23.075C41.7741 22.7917 41.2301 22.65 40.6295 22.65C40.0288 22.65 39.4848 22.7917 38.9975 23.075C38.5101 23.3583 38.1248 23.7607 37.8415 24.282C37.5581 24.792 37.4165 25.3813 37.4165 26.05C37.4165 26.7187 37.5581 27.3137 37.8415 27.835C38.1248 28.345 38.5101 28.7417 38.9975 29.025C39.4848 29.3083 40.0288 29.45 40.6295 29.45ZM59.7494 32L59.7154 25.693L56.6554 30.827H55.1594L52.1164 25.863V32H49.0054V20.1H51.7764L55.9584 26.968L60.0384 20.1H62.8094L62.8434 32H59.7494ZM70.4272 28.838H68.5912V32H65.2252V20.1H70.6652C71.7418 20.1 72.6768 20.2813 73.4702 20.644C74.2635 20.9953 74.8755 21.5053 75.3062 22.174C75.7368 22.8313 75.9522 23.6077 75.9522 24.503C75.9522 25.3643 75.7482 26.118 75.3402 26.764C74.9435 27.3987 74.3712 27.8973 73.6232 28.26L76.1902 32H72.5862L70.4272 28.838ZM72.5522 24.503C72.5522 23.9477 72.3765 23.517 72.0252 23.211C71.6738 22.905 71.1525 22.752 70.4612 22.752H68.5912V26.237H70.4612C71.1525 26.237 71.6738 26.0897 72.0252 25.795C72.3765 25.489 72.5522 25.0583 72.5522 24.503ZM83.8101 32.238C82.5521 32.238 81.4188 31.9717 80.4101 31.439C79.4128 30.9063 78.6251 30.1697 78.0471 29.229C77.4805 28.2883 77.1971 27.2287 77.1971 26.05C77.1971 24.8713 77.4805 23.8117 78.0471 22.871C78.6251 21.9303 79.4128 21.1937 80.4101 20.661C81.4188 20.1283 82.5521 19.862 83.8101 19.862C85.0681 19.862 86.1958 20.1283 87.1931 20.661C88.2018 21.1937 88.9895 21.9303 89.5561 22.871C90.1341 23.8117 90.4231 24.8713 90.4231 26.05C90.4231 27.2287 90.1341 28.2883 89.5561 29.229C88.9895 30.1697 88.2018 30.9063 87.1931 31.439C86.1958 31.9717 85.0681 32.238 83.8101 32.238ZM83.8101 29.45C84.4108 29.45 84.9548 29.3083 85.4421 29.025C85.9295 28.7417 86.3148 28.345 86.5981 27.835C86.8815 27.3137 87.0231 26.7187 87.0231 26.05C87.0231 25.3813 86.8815 24.792 86.5981 24.282C86.3148 23.7607 85.9295 23.3583 85.4421 23.075C84.9548 22.7917 84.4108 22.65 83.8101 22.65C83.2095 22.65 82.6655 22.7917 82.1781 23.075C81.6908 23.3583 81.3055 23.7607 81.0221 24.282C80.7388 24.792 80.5971 25.3813 80.5971 26.05C80.5971 26.7187 80.7388 27.3137 81.0221 27.835C81.3055 28.345 81.6908 28.7417 82.1781 29.025C82.6655 29.3083 83.2095 29.45 83.8101 29.45Z" fill="white"/>
<rect x="37" y="22" width="7" height="8" fill="white"/>
<g filter="url(#filter0_d_1283_6272)">
<path d="M42.9623 25.202C43.077 24.7998 43.0579 24.361 42.909 23.9749C42.7601 23.5889 42.4926 23.2845 42.1608 23.124C41.8291 22.9634 41.4582 22.9586 41.1237 23.1107C40.7891 23.2627 40.516 23.5601 40.3601 23.9423C40.2177 23.847 40.0589 23.7913 39.8957 23.7794C39.7324 23.7674 39.569 23.7995 39.4178 23.8733C39.2666 23.9471 39.1315 24.0606 39.0227 24.2053C38.914 24.35 38.8344 24.522 38.79 24.7085C38.5954 24.6451 38.3917 24.6317 38.1924 24.6693C37.9932 24.7068 37.803 24.7944 37.6347 24.9262C37.4663 25.058 37.3237 25.2309 37.2165 25.4334C37.1092 25.6358 37.0397 25.8631 37.0127 26.0999C36.9857 26.3368 37.0018 26.5777 37.0599 26.8066C37.118 27.0355 37.2167 27.247 37.3495 27.427C37.4823 27.6069 37.646 27.7512 37.8297 27.85C38.0134 27.9488 38.2128 28 38.4146 28H42.8141C43.1157 28.0001 43.4061 27.8639 43.6259 27.6194C43.8458 27.3748 43.9788 27.0401 43.9977 26.6835C44.0166 26.3269 43.92 25.9751 43.7277 25.6999C43.5353 25.4246 43.2616 25.2466 42.9623 25.202Z" fill="#312B3B"/>
</g>
<path d="M26.242 35.8V40H25.642V38.128H23.23V40H22.63V35.8H23.23V37.606H25.642V35.8H26.242ZM29.8451 40.048C29.4211 40.048 29.0391 39.956 28.6991 39.772C28.3591 39.584 28.0911 39.326 27.8951 38.998C27.7031 38.67 27.6071 38.304 27.6071 37.9C27.6071 37.496 27.7031 37.13 27.8951 36.802C28.0911 36.474 28.3591 36.218 28.6991 36.034C29.0391 35.846 29.4211 35.752 29.8451 35.752C30.2651 35.752 30.6451 35.846 30.9851 36.034C31.3251 36.218 31.5911 36.474 31.7831 36.802C31.9751 37.126 32.0711 37.492 32.0711 37.9C32.0711 38.308 31.9751 38.676 31.7831 39.004C31.5911 39.328 31.3251 39.584 30.9851 39.772C30.6451 39.956 30.2651 40.048 29.8451 40.048ZM29.8451 39.514C30.1531 39.514 30.4291 39.444 30.6731 39.304C30.9211 39.164 31.1151 38.972 31.2551 38.728C31.3991 38.48 31.4711 38.204 31.4711 37.9C31.4711 37.596 31.3991 37.322 31.2551 37.078C31.1151 36.83 30.9211 36.636 30.6731 36.496C30.4291 36.356 30.1531 36.286 29.8451 36.286C29.5371 36.286 29.2571 36.356 29.0051 36.496C28.7571 36.636 28.5611 36.83 28.4171 37.078C28.2771 37.322 28.2071 37.596 28.2071 37.9C28.2071 38.204 28.2771 38.48 28.4171 38.728C28.5611 38.972 28.7571 39.164 29.0051 39.304C29.2571 39.444 29.5371 39.514 29.8451 39.514ZM34.6622 40.048C34.3462 40.048 34.0402 40 33.7442 39.904C33.4522 39.804 33.2222 39.676 33.0542 39.52L33.2762 39.052C33.4362 39.196 33.6402 39.314 33.8882 39.406C34.1402 39.494 34.3982 39.538 34.6622 39.538C35.0102 39.538 35.2702 39.48 35.4422 39.364C35.6142 39.244 35.7002 39.086 35.7002 38.89C35.7002 38.746 35.6522 38.63 35.5562 38.542C35.4642 38.45 35.3482 38.38 35.2082 38.332C35.0722 38.284 34.8782 38.23 34.6262 38.17C34.3102 38.094 34.0542 38.018 33.8582 37.942C33.6662 37.866 33.5002 37.75 33.3602 37.594C33.2242 37.434 33.1562 37.22 33.1562 36.952C33.1562 36.728 33.2142 36.526 33.3302 36.346C33.4502 36.166 33.6302 36.022 33.8702 35.914C34.1102 35.806 34.4082 35.752 34.7642 35.752C35.0122 35.752 35.2562 35.784 35.4962 35.848C35.7362 35.912 35.9422 36.004 36.1142 36.124L35.9162 36.604C35.7402 36.492 35.5522 36.408 35.3522 36.352C35.1522 36.292 34.9562 36.262 34.7642 36.262C34.4242 36.262 34.1682 36.324 33.9962 36.448C33.8282 36.572 33.7442 36.732 33.7442 36.928C33.7442 37.072 33.7922 37.19 33.8882 37.282C33.9842 37.37 34.1022 37.44 34.2422 37.492C34.3862 37.54 34.5802 37.592 34.8242 37.648C35.1402 37.724 35.3942 37.8 35.5862 37.876C35.7782 37.952 35.9422 38.068 36.0782 38.224C36.2182 38.38 36.2882 38.59 36.2882 38.854C36.2882 39.074 36.2282 39.276 36.1082 39.46C35.9882 39.64 35.8062 39.784 35.5622 39.892C35.3182 39.996 35.0182 40.048 34.6622 40.048ZM38.3902 36.322H36.9502V35.8H40.4242V36.322H38.9842V40H38.3902V36.322ZM41.5277 35.8H42.1277V40H41.5277V35.8ZM47.4471 35.8V40H46.9551L44.4351 36.868V40H43.8351V35.8H44.3271L46.8471 38.932V35.8H47.4471ZM52.0642 37.876H52.6402V39.514C52.4322 39.686 52.1902 39.818 51.9142 39.91C51.6382 40.002 51.3502 40.048 51.0502 40.048C50.6262 40.048 50.2442 39.956 49.9042 39.772C49.5642 39.584 49.2962 39.328 49.1002 39.004C48.9082 38.676 48.8122 38.308 48.8122 37.9C48.8122 37.492 48.9082 37.124 49.1002 36.796C49.2962 36.468 49.5642 36.212 49.9042 36.028C50.2482 35.844 50.6342 35.752 51.0622 35.752C51.3982 35.752 51.7022 35.808 51.9742 35.92C52.2502 36.028 52.4842 36.188 52.6762 36.4L52.3042 36.772C51.9682 36.448 51.5622 36.286 51.0862 36.286C50.7662 36.286 50.4782 36.356 50.2222 36.496C49.9702 36.632 49.7722 36.824 49.6282 37.072C49.4842 37.316 49.4122 37.592 49.4122 37.9C49.4122 38.204 49.4842 38.48 49.6282 38.728C49.7722 38.972 49.9702 39.164 50.2222 39.304C50.4782 39.444 50.7642 39.514 51.0802 39.514C51.4562 39.514 51.7842 39.424 52.0642 39.244V37.876ZM58.1783 40.048C57.7583 40.048 57.3783 39.956 57.0383 39.772C56.7023 39.584 56.4383 39.328 56.2463 39.004C56.0543 38.676 55.9583 38.308 55.9583 37.9C55.9583 37.492 56.0543 37.126 56.2463 36.802C56.4383 36.474 56.7043 36.218 57.0443 36.034C57.3843 35.846 57.7643 35.752 58.1843 35.752C58.5123 35.752 58.8123 35.808 59.0843 35.92C59.3563 36.028 59.5883 36.19 59.7803 36.406L59.3903 36.784C59.0743 36.452 58.6803 36.286 58.2083 36.286C57.8963 36.286 57.6143 36.356 57.3623 36.496C57.1103 36.636 56.9123 36.83 56.7683 37.078C56.6283 37.322 56.5583 37.596 56.5583 37.9C56.5583 38.204 56.6283 38.48 56.7683 38.728C56.9123 38.972 57.1103 39.164 57.3623 39.304C57.6143 39.444 57.8963 39.514 58.2083 39.514C58.6763 39.514 59.0703 39.346 59.3903 39.01L59.7803 39.388C59.5883 39.604 59.3543 39.768 59.0783 39.88C58.8063 39.992 58.5063 40.048 58.1783 40.048ZM62.8944 40.048C62.4704 40.048 62.0884 39.956 61.7484 39.772C61.4084 39.584 61.1404 39.326 60.9444 38.998C60.7524 38.67 60.6564 38.304 60.6564 37.9C60.6564 37.496 60.7524 37.13 60.9444 36.802C61.1404 36.474 61.4084 36.218 61.7484 36.034C62.0884 35.846 62.4704 35.752 62.8944 35.752C63.3144 35.752 63.6944 35.846 64.0344 36.034C64.3744 36.218 64.6404 36.474 64.8324 36.802C65.0244 37.126 65.1204 37.492 65.1204 37.9C65.1204 38.308 65.0244 38.676 64.8324 39.004C64.6404 39.328 64.3744 39.584 64.0344 39.772C63.6944 39.956 63.3144 40.048 62.8944 40.048ZM62.8944 39.514C63.2024 39.514 63.4784 39.444 63.7224 39.304C63.9704 39.164 64.1644 38.972 64.3044 38.728C64.4484 38.48 64.5204 38.204 64.5204 37.9C64.5204 37.596 64.4484 37.322 64.3044 37.078C64.1644 36.83 63.9704 36.636 63.7224 36.496C63.4784 36.356 63.2024 36.286 62.8944 36.286C62.5864 36.286 62.3064 36.356 62.0544 36.496C61.8064 36.636 61.6104 36.83 61.4664 37.078C61.3264 37.322 61.2564 37.596 61.2564 37.9C61.2564 38.204 61.3264 38.48 61.4664 38.728C61.6104 38.972 61.8064 39.164 62.0544 39.304C62.3064 39.444 62.5864 39.514 62.8944 39.514ZM70.3814 40L70.3754 36.94L68.8574 39.49H68.5814L67.0634 36.958V40H66.4874V35.8H66.9794L68.7314 38.752L70.4594 35.8H70.9514L70.9574 40H70.3814ZM74.3059 35.8C74.8499 35.8 75.2779 35.93 75.5899 36.19C75.9019 36.45 76.0579 36.808 76.0579 37.264C76.0579 37.72 75.9019 38.078 75.5899 38.338C75.2779 38.598 74.8499 38.728 74.3059 38.728H73.2679V40H72.6679V35.8H74.3059ZM74.2879 38.206C74.6679 38.206 74.9579 38.126 75.1579 37.966C75.3579 37.802 75.4579 37.568 75.4579 37.264C75.4579 36.96 75.3579 36.728 75.1579 36.568C74.9579 36.404 74.6679 36.322 74.2879 36.322H73.2679V38.206H74.2879ZM79.8544 38.95H77.6224L77.1604 40H76.5424L78.4444 35.8H79.0384L80.9464 40H80.3164L79.8544 38.95ZM79.6444 38.47L78.7384 36.412L77.8324 38.47H79.6444ZM85.635 35.8V40H85.143L82.623 36.868V40H82.023V35.8H82.515L85.035 38.932V35.8H85.635ZM88.9501 38.548V40H88.3561V38.536L86.6881 35.8H87.3301L88.6741 38.014L90.0241 35.8H90.6181L88.9501 38.548Z" fill="white"/>
<defs>
<filter id="filter0_d_1283_6272" x="35" y="20" width="13" height="11" filterUnits="userSpaceOnUse" color-interpolation-filters="sRGB">
<feFlood flood-opacity="0" result="BackgroundImageFix"/>
<feColorMatrix in="SourceAlpha" type="matrix" values="0 0 0 0 0 0 0 0 0 0 0 0 0 0 0 0 0 0 127 0" result="hardAlpha"/>
<feOffset dx="1"/>
<feGaussianBlur stdDeviation="1.5"/>
<feComposite in2="hardAlpha" operator="out"/>
<feColorMatrix type="matrix" values="0 0 0 0 0.266667 0 0 0 0 0.172549 0 0 0 0 0.396078 0 0 0 0.42 0"/>
<feBlend mode="normal" in2="BackgroundImageFix" result="effect1_dropShadow_1283_6272"/>
<feBlend mode="normal" in="SourceGraphic" in2="effect1_dropShadow_1283_6272" result="shape"/>
</filter>
<linearGradient id="paint0_linear_1283_6272" x1="24.4574" y1="14.0497" x2="15.7117" y2="29.1976" gradientUnits="userSpaceOnUse">
<stop stop-color="#FB67A3"/>
<stop offset="0.396687" stop-color="#E72690"/>
<stop offset="1" stop-color="#C630BB"/>
</linearGradient>
<linearGradient id="paint1_linear_1283_6272" x1="24.7082" y1="9.20812" x2="11.6023" y2="31.9082" gradientUnits="userSpaceOnUse">
<stop stop-color="#FB67A3"/>
<stop offset="0.396687" stop-color="#E72690"/>
<stop offset="1" stop-color="#C630BB"/>
</linearGradient>
<linearGradient id="paint2_linear_1283_6272" x1="24.574" y1="4.28717" x2="7.42536" y2="33.9895" gradientUnits="userSpaceOnUse">
<stop stop-color="#FB67A3"/>
<stop offset="0.396687" stop-color="#E72690"/>
<stop offset="1" stop-color="#C630BB"/>
</linearGradient>
</defs>
</svg>
