<svg width="18" height="18" viewBox="0 0 18 18" fill="none" xmlns="http://www.w3.org/2000/svg">
    <g clip-path="url(#clip0_1135_6411)">
        <path d="M0.526561 13.746H14.3084C14.432 13.746 14.5515 13.7027 14.6463 13.6239C14.7786 13.5131 17.7982 10.9154 17.9824 5.30811H3.18091C2.99749 10.398 0.216574 12.7905 0.187674 12.8143C0.0182484 12.9575 -0.0440865 13.1913 0.0321357 13.3994C0.107831 13.6069 0.305101 13.746 0.526561 13.746V13.746Z" fill="#AE9CCD"/>
        <path d="M17.4726 2.14409H14.8357V1.61672C14.8357 1.3214 14.6037 1.08936 14.3084 1.08936C14.013 1.08936 13.781 1.3214 13.781 1.61672V2.14409H11.109V1.61672C11.109 1.3214 10.877 1.08936 10.5816 1.08936C10.2863 1.08936 10.0543 1.3214 10.0543 1.61672V2.14409H7.41743V1.61672C7.41743 1.3214 7.18539 1.08936 6.89006 1.08936C6.59473 1.08936 6.36269 1.3214 6.36269 1.61672V2.14409H3.72585C3.43053 2.14409 3.19849 2.37613 3.19849 2.67146V4.25356H17.9999V2.67146C17.9999 2.37613 17.7679 2.14409 17.4726 2.14409Z" fill="#AE9CCD"/>
        <path d="M15.3234 14.4325C15.0371 14.6709 14.6776 14.8007 14.3084 14.8007H3.19849V16.3828C3.19849 16.6743 3.43436 16.9102 3.72585 16.9102H17.4726C17.7641 16.9102 17.9999 16.6743 17.9999 16.3828V10.4712C16.9832 12.9657 15.5643 14.2309 15.3234 14.4325Z" fill="#AE9CCD"/>
    </g>
    <defs>
        <clipPath id="clip0_1135_6411">
            <rect width="18" height="18" fill="white"/>
        </clipPath>
    </defs>
</svg>
