<svg width="30" height="30" viewBox="0 0 30 30" fill="none" xmlns="http://www.w3.org/2000/svg">
<path d="M5.22852 25.4473L6.57026 29.9996H15.0218H23.4385L24.7807 25.4473H5.22852Z" fill="url(#paint0_linear_10998_33181)"/>
<path d="M27.1827 15.797C27.1827 14.6551 27.8132 13.7288 28.5914 13.7288C28.7696 13.7288 28.939 13.7823 29.0959 13.8716L30 10.5972L26.9618 8.48058C25.3749 13.0028 22.3782 15.4175 20.162 13.8529C17.9396 12.2842 17.3486 7.33807 18.7778 2.68328L15.0165 0L11.2374 2.69182C12.6669 7.34718 12.067 12.3064 9.8446 13.875C7.62836 15.4392 4.6274 13.0489 3.0405 8.52667L0 10.5966L0.903701 13.8716C1.06065 13.7829 1.23 13.7288 1.40865 13.7288C2.1864 13.7288 2.81729 14.6545 2.81729 15.797C2.81729 16.6516 2.46426 17.3008 1.96048 17.6161L4.60531 23.1681H25.3935L28.0395 17.6155C27.5358 17.3003 27.1827 16.6511 27.1827 15.797ZM14.9998 8.29623C14.222 8.29623 13.5915 7.37051 13.5915 6.22801C13.5915 5.08607 14.222 4.16035 14.9998 4.16035C15.7776 4.16035 16.4084 5.08607 16.4084 6.22801C16.4081 7.36994 15.7776 8.29623 14.9998 8.29623Z" fill="url(#paint1_linear_10998_33181)"/>
<defs>
<linearGradient id="paint0_linear_10998_33181" x1="5.22852" y1="27.7234" x2="24.7788" y2="27.9157" gradientUnits="userSpaceOnUse">
<stop stop-color="#FA4BB4"/>
<stop offset="0.982292" stop-color="#ED32CF"/>
</linearGradient>
<linearGradient id="paint1_linear_10998_33181" x1="7.67599e-08" y1="11.5841" x2="29.9997" y2="11.673" gradientUnits="userSpaceOnUse">
<stop stop-color="#FA4BB4"/>
<stop offset="0.982292" stop-color="#ED32CF"/>
</linearGradient>
</defs>
</svg>
