<svg width="18" height="16" viewBox="0 0 18 16" fill="none" xmlns="http://www.w3.org/2000/svg">
    <path d="M13.4575 4.04128V0L18.0004 4.04128H13.4575Z" fill="#DECBFE"/>
    <path d="M12.93 4.9788C12.6387 4.9788 12.4026 4.76893 12.4026 4.51005V0H3.61231C3.32107 0 3.08496 0.209875 3.08496 0.468749V6.55136H13.2464C14.1187 6.55136 14.8284 7.18221 14.8284 7.95761V12.7569C14.8284 13.5323 14.1187 14.1632 13.2464 14.1632H3.08496V15.5313C3.08496 15.7901 3.32107 16 3.61231 16H17.4728C17.764 16 18.0001 15.7901 18.0001 15.5313V4.9788H12.93Z" fill="#DECBFE"/>
    <path d="M13.2462 7.48877H0.52735C0.236112 7.48877 0 7.69864 0 7.95752V12.7568C0 13.0157 0.236112 13.2256 0.52735 13.2256H13.2462C13.5375 13.2256 13.7736 13.0157 13.7736 12.7568V7.95752C13.7736 7.69864 13.5375 7.48877 13.2462 7.48877ZM4.8866 11.4931C4.83808 11.5445 4.78528 11.5929 4.72966 11.6369C4.44556 11.8619 4.08126 11.9807 3.67605 11.9807C2.66892 11.9807 1.84956 11.2524 1.84956 10.3571C1.84956 9.46193 2.66892 8.73361 3.67605 8.73361C4.04203 8.73361 4.39525 8.82958 4.69759 9.01114C4.89869 9.13193 4.9516 9.37474 4.81569 9.55349C4.67984 9.73221 4.40664 9.77927 4.20554 9.65846C4.0491 9.56452 3.866 9.51483 3.67605 9.51483C3.15355 9.51483 2.72847 9.89268 2.72847 10.3571C2.72847 10.8216 3.15355 11.1994 3.67605 11.1994C3.86495 11.1994 4.02273 11.1503 4.14504 11.0536C4.16894 11.0346 4.1919 11.0136 4.21317 10.991C4.3692 10.8257 4.6463 10.8041 4.83228 10.9427C5.01826 11.0814 5.04255 11.3278 4.8866 11.4931ZM8.16787 11.1075C8.07123 11.5886 7.55889 11.9378 6.94962 11.9378C6.46671 11.9378 6.01284 11.7643 5.70445 11.4618C5.53946 11.3 5.55549 11.0488 5.74171 10.9047C5.92351 10.7641 6.19871 10.7891 6.36388 10.9451C6.50429 11.0777 6.7222 11.1566 6.94959 11.1566C7.1555 11.1566 7.28692 11.0484 7.3026 10.9702C7.31937 10.8869 7.16436 10.8046 7.02658 10.7595C6.61402 10.6242 6.24741 10.4791 6.23197 10.473C6.21077 10.4646 6.19042 10.4547 6.17101 10.4435C5.85667 10.2613 5.69467 9.94196 5.74829 9.61005C5.80503 9.25883 6.09219 8.97318 6.49776 8.86458C7.1182 8.69846 7.69568 8.96199 7.93911 9.14386L7.93907 9.14402C8.12347 9.28268 8.14755 9.52786 7.99237 9.69277C7.83666 9.85827 7.55952 9.88018 7.37333 9.74177L7.37337 9.74174C7.37077 9.73993 7.0675 9.52796 6.75131 9.61264C6.67459 9.63318 6.62611 9.67271 6.61831 9.72111C6.61827 9.72133 6.61824 9.72158 6.6182 9.7218C6.61388 9.74999 6.63392 9.77674 6.66331 9.78802C6.78678 9.83546 7.05045 9.93461 7.33083 10.0265C8.06005 10.2656 8.24135 10.7417 8.16787 11.1075ZM11.6357 9.25196L10.7299 11.6755C10.6603 11.8577 10.4707 11.9794 10.2572 11.9807C10.256 11.9807 10.2548 11.9807 10.2536 11.9807C10.0414 11.9807 9.85159 11.8618 9.78051 11.6839L8.831 9.25236C8.7514 9.04855 8.87276 8.82599 9.10206 8.75524C9.33121 8.68458 9.58173 8.79236 9.66129 8.99618L10.2458 10.4929L10.8016 9.00564C10.8782 8.80089 11.1268 8.69005 11.3572 8.75811C11.5876 8.82611 11.7123 9.04724 11.6357 9.25196Z" fill="#DECBFE"/>
</svg>
