<svg aria-hidden="true" style="position: absolute; width: 0; height: 0; overflow: hidden;" version="1.1" xmlns="http://www.w3.org/2000/svg" xmlns:xlink="http://www.w3.org/1999/xlink">
<defs>
    <symbol id="icon-eye" viewBox="0 0 49 32">
    <path d="M24.018 31.052c-8.991 0-17.599-6.615-23.282-13.482-0.982-1.187-0.982-2.91 0-4.096 1.429-1.727 4.423-5.058 8.422-7.969 10.073-7.332 19.626-7.346 29.719 0 4.699 3.42 8.422 7.905 8.422 7.969 0.982 1.187 0.982 2.91 0 4.096-5.681 6.866-14.289 13.482-23.282 13.482zM24.018 2.95c-9.96 0-18.594 9.498-21.003 12.41-0.078 0.094-0.078 0.231 0 0.325 2.409 2.911 11.043 12.41 21.003 12.41s18.594-9.498 21.003-12.41c0.14-0.17-0.009-0.325 0-0.325-2.409-2.911-11.043-12.41-21.003-12.41z"></path>
    <path d="M24.017 25.875c-5.709 0-10.353-4.644-10.353-10.353s4.644-10.353 10.353-10.353c5.709 0 10.353 4.645 10.353 10.353s-4.644 10.353-10.353 10.353zM24.017 8.126c-4.078 0-7.395 3.318-7.395 7.395s3.318 7.395 7.395 7.395c4.078 0 7.395-3.317 7.395-7.395s-3.318-7.395-7.395-7.395z"></path>
    </symbol>
    <symbol id="icon-facebook" viewBox="0 0 32 32">
    <path fill="#3b5998" d="M16 32c8.837 0 16-7.163 16-16s-7.163-16-16-16c-8.837 0-16 7.163-16 16s7.163 16 16 16z"></path>
    <path fill="#fff" d="M20.023 16.626h-2.855v10.459h-4.326v-10.459h-2.057v-3.676h2.057v-2.379c0-1.701 0.808-4.365 4.364-4.365l3.204 0.013v3.568h-2.325c-0.381 0-0.918 0.191-0.918 1.002v2.163h3.233l-0.378 3.672z"></path>
    </symbol>
    <symbol id="icon-google" viewBox="0 0 32 32">
    <path fill="#167ee6" d="M30.792 13.218l-13.052-0.001c-0.576 0-1.044 0.467-1.044 1.044v4.17c0 0.576 0.467 1.043 1.044 1.043h7.35c-0.805 2.089-2.307 3.838-4.224 4.95l3.134 5.426c5.028-2.908 8-8.009 8-13.721 0-0.813-0.060-1.394-0.18-2.049-0.091-0.497-0.523-0.862-1.028-0.862z"></path>
    <path fill="#12b347" d="M16 25.739c-3.597 0-6.737-1.965-8.424-4.874l-5.425 3.127c2.761 4.785 7.933 8.007 13.849 8.007 2.902 0 5.641-0.781 8-2.143v-0.007l-3.134-5.426c-1.434 0.831-3.093 1.315-4.866 1.315z"></path>
    <path fill="#0f993e" d="M24 29.857v-0.007l-3.134-5.426c-1.434 0.831-3.092 1.315-4.866 1.315v6.261c2.902 0 5.641-0.781 8-2.143z"></path>
    <path fill="#ffd500" d="M6.261 16c0-1.773 0.484-3.432 1.315-4.865l-5.425-3.127c-1.369 2.352-2.151 5.083-2.151 7.993s0.781 5.641 2.151 7.993l5.425-3.127c-0.831-1.434-1.315-3.092-1.315-4.865z"></path>
    <path fill="#ff4b26" d="M16 6.261c2.346 0 4.5 0.833 6.183 2.22 0.415 0.342 1.019 0.317 1.399-0.063l2.954-2.954c0.431-0.431 0.401-1.138-0.060-1.538-2.82-2.446-6.488-3.926-10.476-3.926-5.916 0-11.088 3.222-13.849 8.007l5.425 3.127c1.687-2.908 4.827-4.874 8.424-4.874z"></path>
    <path fill="#d93f21" d="M22.183 8.481c0.415 0.342 1.019 0.317 1.399-0.063l2.954-2.954c0.431-0.431 0.401-1.138-0.060-1.538-2.82-2.446-6.488-3.926-10.476-3.926v6.261c2.346 0 4.5 0.833 6.183 2.22z"></path>
    </symbol>
    <symbol id="icon-moon" viewBox="0 0 32 32">
    <path fill="#fff" d="M16.819 31.663c5.879 0.063 11.25-3.39 13.726-8.826-1.559 0.693-3.247 1.033-4.947 0.995-6.664-0.008-12.065-5.513-12.072-12.307 0.067-4.595 2.554-8.799 6.51-11.002-1.067-0.138-2.142-0.2-3.218-0.185-8.486 0-15.364 7.013-15.364 15.663s6.879 15.663 15.364 15.663z"></path>
    </symbol>
    <symbol id="icon-sun" viewBox="0 0 31 32">
    <path fill="#412672" d="M20.899 10.013c-1.388-1.388-3.347-2.286-5.469-2.286s-4.082.857-5.469 2.286c-1.388 1.388-2.286 3.347-2.286 5.469s.898 4.082 2.286 5.47 3.347 2.286 5.469 2.286a7.61 7.61 0 0 0 5.469-2.286c1.388-1.388 2.286-3.347 2.286-5.47s-.857-4.082-2.286-5.469zM15.427 5.32a1.08 1.08 0 0 0 1.061-1.061V1.116c0-.571-.49-1.061-1.061-1.061s-1.061.49-1.061 1.061v3.143c0 .571.49 1.061 1.061 1.061zM24.122 8.301l2.245-2.245c.408-.408.408-1.061 0-1.469s-1.061-.408-1.469 0l-2.245 2.245a1.035 1.035 0 0 0 0 1.469c.367.408 1.02.408 1.469 0zM29.796 14.422h-3.143c-.571 0-1.061.49-1.061 1.061s.49 1.061 1.061 1.061h3.143c.571 0 1.061-.49 1.061-1.061s-.49-1.061-1.061-1.061zM24.081 22.667c-.408-.408-1.061-.408-1.47 0s-.408 1.061 0 1.469l2.245 2.245c.408.408 1.061.408 1.469 0s.408-1.061 0-1.469l-2.245-2.245zM15.427 25.646a1.08 1.08 0 0 0-1.061 1.061v3.143c0 .571.49 1.061 1.061 1.061s1.061-.49 1.061-1.061v-3.143a1.08 1.08 0 0 0-1.061-1.061zM6.734 22.667l-2.245 2.245c-.408.408-.408 1.061 0 1.469s1.061.408 1.469 0l2.245-2.245a1.035 1.035 0 0 0 0-1.469c-.367-.408-1.02-.408-1.469 0zM5.265 15.483a1.08 1.08 0 0 0-1.061-1.061H1.061c-.571 0-1.061.49-1.061 1.061s.49 1.061 1.061 1.061h3.143a1.08 1.08 0 0 0 1.061-1.061zM6.734 8.301c.408.408 1.061.408 1.469 0s.408-1.061 0-1.469L5.958 4.587c-.408-.408-1.061-.408-1.469 0s-.408 1.061 0 1.469l2.245 2.245z"/>
    </symbol>
    <symbol id="icon-vk" viewBox="0 0 32 32">
    <path fill="#4c75a3" d="M16 0c-8.837 0-16 7.163-16 16s7.163 16 16 16c8.837 0 16-7.163 16-16s-7.163-16-16-16zM25.39 21.846l-2.76 0.038c0 0-0.594 0.118-1.373-0.421-1.034-0.709-2.006-2.552-2.764-2.316s-0.745 1.895-0.745 1.895c0.003 0.195-0.057 0.385-0.171 0.543-0.159 0.137-0.356 0.222-0.564 0.246h-1.223c0 0-2.737 0.162-5.126-2.335-2.627-2.712-4.941-8.128-4.941-8.128s-0.136-0.314 0.013-0.526c0.129-0.183 0.446-0.203 0.606-0.21 0.691-0.032 2.766-0.019 2.766-0.019 0.174-0.004 0.29 0.005 0.505 0.099 0.185 0.091 0.325 0.227 0.415 0.446 0.319 0.795 0.69 1.569 1.11 2.316 1.234 2.133 1.809 2.598 2.227 2.37 0.608-0.333 0.421-3.013 0.421-3.013s0-0.975-0.307-1.406c-0.231-0.27-0.558-0.441-0.912-0.478-0.166-0.023 0.107-0.409 0.461-0.581 0.53-0.261 1.47-0.261 2.577-0.261 0.487-0.018 0.975 0.031 1.448 0.147 1.019 0.246 0.674 1.194 0.674 3.472 0 0.728-0.133 1.756 0.394 2.105 0.227 0.145 0.779 0.021 2.164-2.328 0.442-0.777 0.826-1.587 1.147-2.421 0.062-0.133 0.156-0.248 0.274-0.335 0.124-0.062 0.264-0.086 0.402-0.069l3.107-0.021c0 0 0.933-0.111 1.084 0.312s-0.349 1.474-1.619 3.158c-2.084 2.779-2.316 2.526-0.585 4.124 1.653 1.535 1.996 2.282 2.053 2.375 0.686 1.133-0.758 1.223-0.758 1.223z"></path>
    </symbol>
    <symbol id="icon-closed-eye" viewBox="0 0 68 32">
    <path d="M61.462 5.608l0.459-0.439c0.892-0.896 1.102-2.664 0.484-3.951-0.623-1.298-1.849-1.591-2.723-0.708-30.585 31.025-52.848 1.527-53.784 0.259-0.789-1.072-2.033-1.017-2.768 0.121-0.739 1.143-0.703 2.931 0.079 4.006 0.042 0.058 0.739 0.983 2.010 2.351l-3.918 9.375c-0.559 1.337-0.266 3.083 0.656 3.901 0.315 0.275 0.673 0.414 1.020 0.414 0.659 0 1.3-0.486 1.672-1.36l3.831-9.159c2.148 1.897 4.902 3.969 8.184 5.719l-1.888 9.158c-0.313 1.508 0.272 3.081 1.305 3.529l0.563 0.121c0.835 0 1.615-0.796 1.869-2.026l1.87-9.033c3.029 1.202 6.417 2.013 10.074 2.206v9.071c0 1.57 0.874 2.837 1.956 2.837 1.081 0 1.955-1.268 1.955-2.837v-9.121c3.191-0.254 6.572-1.050 10.103-2.511l2.407 9.209c0.3 1.134 1.044 1.829 1.829 1.829l0.692-0.179c1.010-0.557 1.521-2.193 1.138-3.657l-2.343-8.972c3.215-1.733 6.538-4.014 9.97-7.040l3.168 6.136c0.386 0.741 0.975 1.139 1.563 1.139 0.41 0 0.82-0.181 1.172-0.57 0.867-0.941 1.042-2.719 0.396-3.972l-2.999-5.844z"></path>
    </symbol>
    <symbol id="icon-cross" viewBox="0 0 32 32">
    <path d="M31.355 0.656c-0.875-0.874-2.23-0.874-3.105 0l-12.245 12.24-12.244-12.24c-0.875-0.874-2.23-0.874-3.105 0s-0.875 2.229 0 3.104l12.244 12.24-12.244 12.24c-0.875 0.874-0.875 2.23 0 3.104 0.437 0.437 1.006 0.656 1.531 0.656s1.137-0.219 1.531-0.656l12.244-12.24 12.244 12.24c0.437 0.437 1.006 0.656 1.531 0.656s1.137-0.219 1.531-0.656c0.875-0.874 0.875-2.229 0-3.104l-12.245-12.24 12.245-12.24c0.962-0.874 0.962-2.273 0.087-3.104z"></path>
    </symbol>
    <symbol id="icon-envelope" viewBox="0 0 30 32">
    <path d="M0 5.053v22.211h29.158v-22.211h-29.158zM26.101 6.761l-11.522 10.518-11.522-10.518h23.044zM27.45 25.555h-25.741v-17.711l12.871 11.749 12.871-11.749v17.711z"></path>
    </symbol>
    <symbol id="icon-padlock" viewBox="0 0 30 32">
    <path d="M24.369 32h-18c-1.653 0-3-1.345-3-3v-14c0-1.655 1.347-3 3-3h18c1.653 0 3 1.345 3 3v14c0 1.655-1.347 3-3 3zM6.368 14c-0.551 0-1 0.448-1 1v14c0 0.552 0.449 1 1 1h18c0.551 0 1-0.448 1-1v-14c0-0.552-0.449-1-1-1h-18z"></path>
    <path d="M22.368 14c-0.552 0-1-0.448-1-1v-5c0-3.308-2.692-6-6-6s-6 2.692-6 6v5c0 0.552-0.448 1-1 1s-1-0.448-1-1v-5c0-4.412 3.588-8 8-8s8 3.588 8 8v5c0 0.552-0.448 1-1 1z"></path>
    <path d="M15.369 22.666c-1.471 0-2.667-1.196-2.667-2.667s1.196-2.667 2.667-2.667c1.471 0 2.667 1.196 2.667 2.667s-1.196 2.667-2.667 2.667zM15.369 19.333c-0.367 0-0.667 0.299-0.667 0.667s0.3 0.667 0.667 0.667c0.367 0 0.667-0.299 0.667-0.667s-0.3-0.667-0.667-0.667z"></path>
    <path d="M15.368 26.667c-0.552 0-1-0.448-1-1v-3.667c0-0.552 0.448-1 1-1s1 0.448 1 1v3.667c0 0.552-0.448 1-1 1z"></path>
    </symbol>
    <symbol id="icon-person" viewBox="0 0 30 32">
    <path d="M24.932 19.7c-1.376-1.376-3.013-2.394-4.8-3.011 1.914-1.318 3.171-3.524 3.171-6.018 0-4.027-3.276-7.303-7.303-7.303s-7.303 3.276-7.303 7.303c0 2.494 1.257 4.7 3.171 6.018-1.787 0.617-3.424 1.635-4.8 3.011-2.386 2.386-3.7 5.558-3.7 8.932h1.974c0-5.877 4.781-10.658 10.658-10.658s10.658 4.781 10.658 10.658h1.974c0-3.374-1.314-6.546-3.7-8.932zM16 16c-2.938 0-5.329-2.391-5.329-5.329s2.391-5.329 5.329-5.329c2.938 0 5.329 2.391 5.329 5.329s-2.391 5.329-5.329 5.329z"></path>
    </symbol>
    <symbol id="icon-search" viewBox="0 0 30 32">
    <path d="M13.536 23.696c2.258 0 4.451-0.754 6.233-2.141l6.721 6.722c0.502 0.485 1.302 0.471 1.787-0.031 0.473-0.49 0.473-1.266 0-1.756l-6.721-6.722c3.443-4.433 2.641-10.818-1.791-14.262s-10.816-2.642-14.259 1.791-2.641 10.818 1.791 14.262c1.784 1.386 3.98 2.138 6.239 2.137zM8.136 8.133c2.982-2.983 7.818-2.983 10.8-0s2.982 7.819 0 10.802c-2.982 2.983-7.818 2.983-10.8 0-2.982-2.961-3-7.78-0.039-10.763 0.013-0.013 0.026-0.026 0.039-0.039z"></path>
    </symbol>
    <symbol id="icon-shevron" viewBox="0 0 44 32">
    <path fill="none" stroke-linejoin="miter" stroke-linecap="butt" stroke-miterlimit="4" stroke-width="5.8182" d="M40.727 29.091l-19.266-23.273-18.552 23.273"></path>
    </symbol>
</defs>
</svg>


