<svg aria-hidden="true" style="position: absolute; width: 0; height: 0; overflow: hidden;" version="1.1" xmlns="http://www.w3.org/2000/svg" xmlns:xlink="http://www.w3.org/1999/xlink">
<defs>
    <symbol id="icon-envelope" viewBox="0 0 32 32">
    <path d="M0 3.556v23.444h30.778v-23.444h-30.778zM27.551 5.359l-12.162 11.102-12.162-11.102h24.324zM28.975 25.197h-27.172v-18.695l13.586 12.402 13.586-12.402v18.695z"></path>
    </symbol>
    <symbol id="icon-eye" viewBox="0 0 32 32">
    <path d="M16 26.343c-5.989 0-11.724-4.407-15.509-8.981-0.654-0.791-0.654-1.938 0-2.729 0.952-1.15 2.946-3.369 5.611-5.309 6.711-4.885 13.074-4.894 19.798 0 3.13 2.278 5.611 5.266 5.611 5.309 0.654 0.791 0.654 1.938 0 2.729-3.785 4.574-9.519 8.981-15.509 8.981zM16 7.623c-6.635 0-12.386 6.327-13.991 8.267-0.052 0.063-0.052 0.154 0 0.216 1.605 1.939 7.356 8.267 13.991 8.267s12.386-6.327 13.991-8.267c0.094-0.113-0.006-0.216 0-0.216-1.605-1.939-7.356-8.267-13.991-8.267z"></path>
    <path d="M16 22.894c-3.803 0-6.897-3.094-6.897-6.897s3.094-6.897 6.897-6.897c3.803 0 6.897 3.094 6.897 6.897s-3.094 6.897-6.897 6.897zM16 11.070c-2.716 0-4.926 2.21-4.926 4.927s2.21 4.926 4.926 4.926c2.716 0 4.926-2.21 4.926-4.926s-2.21-4.927-4.926-4.927z"></path>
    </symbol>
    <symbol id="icon-facebook" viewBox="0 0 32 32">
    <path fill="#3b5998" d="M16 32c8.837 0 16-7.163 16-16s-7.163-16-16-16c-8.837 0-16 7.163-16 16s7.163 16 16 16z"></path>
    <path fill="#fff" d="M20.023 16.626h-2.855v10.459h-4.326v-10.459h-2.057v-3.676h2.057v-2.379c0-1.701 0.808-4.365 4.364-4.365l3.204 0.013v3.568h-2.325c-0.381 0-0.918 0.191-0.918 1.002v2.163h3.233l-0.378 3.672z"></path>
    </symbol>
    <symbol id="icon-google" viewBox="0 0 32 32">
    <path fill="#167ee6" d="M30.792 13.218l-13.052-0.001c-0.576 0-1.044 0.467-1.044 1.044v4.17c0 0.576 0.467 1.043 1.044 1.043h7.35c-0.805 2.089-2.307 3.838-4.224 4.95l3.134 5.426c5.028-2.908 8-8.009 8-13.721 0-0.813-0.060-1.394-0.18-2.049-0.091-0.497-0.523-0.862-1.028-0.862z"></path>
    <path fill="#12b347" d="M16 25.739c-3.597 0-6.737-1.965-8.424-4.874l-5.425 3.127c2.761 4.785 7.933 8.007 13.849 8.007 2.902 0 5.641-0.781 8-2.143v-0.007l-3.134-5.426c-1.434 0.831-3.093 1.315-4.866 1.315z"></path>
    <path fill="#0f993e" d="M24 29.857v-0.007l-3.134-5.426c-1.434 0.831-3.092 1.315-4.866 1.315v6.261c2.902 0 5.641-0.781 8-2.143z"></path>
    <path fill="#ffd500" d="M6.261 16c0-1.773 0.484-3.432 1.315-4.865l-5.425-3.127c-1.369 2.352-2.151 5.083-2.151 7.993s0.781 5.641 2.151 7.993l5.425-3.127c-0.831-1.434-1.315-3.092-1.315-4.865z"></path>
    <path fill="#ff4b26" d="M16 6.261c2.346 0 4.5 0.833 6.183 2.22 0.415 0.342 1.019 0.317 1.399-0.063l2.954-2.954c0.431-0.431 0.401-1.138-0.060-1.538-2.82-2.446-6.488-3.926-10.476-3.926-5.916 0-11.088 3.222-13.849 8.007l5.425 3.127c1.687-2.908 4.827-4.874 8.424-4.874z"></path>
    <path fill="#d93f21" d="M22.183 8.481c0.415 0.342 1.019 0.317 1.399-0.063l2.954-2.954c0.431-0.431 0.401-1.138-0.060-1.538-2.82-2.446-6.488-3.926-10.476-3.926v6.261c2.346 0 4.5 0.833 6.183 2.22z"></path>
    </symbol>
    <symbol id="icon-moon" viewBox="0 0 32 32">
    <path fill="#fff" d="M16.819 31.663c5.879 0.063 11.25-3.39 13.726-8.826-1.559 0.693-3.247 1.033-4.947 0.995-6.664-0.008-12.065-5.513-12.072-12.307 0.067-4.595 2.554-8.799 6.51-11.002-1.067-0.138-2.142-0.2-3.218-0.185-8.486 0-15.364 7.013-15.364 15.663s6.879 15.663 15.364 15.663z"></path>
    </symbol>
    <symbol id="icon-sun" viewBox="0 0 31 32">
      <path fill="#412672" d="M20.899 10.013c-1.388-1.388-3.347-2.286-5.469-2.286s-4.082.857-5.469 2.286c-1.388 1.388-2.286 3.347-2.286 5.469s.898 4.082 2.286 5.47 3.347 2.286 5.469 2.286a7.61 7.61 0 0 0 5.469-2.286c1.388-1.388 2.286-3.347 2.286-5.47s-.857-4.082-2.286-5.469zM15.427 5.32a1.08 1.08 0 0 0 1.061-1.061V1.116c0-.571-.49-1.061-1.061-1.061s-1.061.49-1.061 1.061v3.143c0 .571.49 1.061 1.061 1.061zM24.122 8.301l2.245-2.245c.408-.408.408-1.061 0-1.469s-1.061-.408-1.469 0l-2.245 2.245a1.035 1.035 0 0 0 0 1.469c.367.408 1.02.408 1.469 0zM29.796 14.422h-3.143c-.571 0-1.061.49-1.061 1.061s.49 1.061 1.061 1.061h3.143c.571 0 1.061-.49 1.061-1.061s-.49-1.061-1.061-1.061zM24.081 22.667c-.408-.408-1.061-.408-1.47 0s-.408 1.061 0 1.469l2.245 2.245c.408.408 1.061.408 1.469 0s.408-1.061 0-1.469l-2.245-2.245zM15.427 25.646a1.08 1.08 0 0 0-1.061 1.061v3.143c0 .571.49 1.061 1.061 1.061s1.061-.49 1.061-1.061v-3.143a1.08 1.08 0 0 0-1.061-1.061zM6.734 22.667l-2.245 2.245c-.408.408-.408 1.061 0 1.469s1.061.408 1.469 0l2.245-2.245a1.035 1.035 0 0 0 0-1.469c-.367-.408-1.02-.408-1.469 0zM5.265 15.483a1.08 1.08 0 0 0-1.061-1.061H1.061c-.571 0-1.061.49-1.061 1.061s.49 1.061 1.061 1.061h3.143a1.08 1.08 0 0 0 1.061-1.061zM6.734 8.301c.408.408 1.061.408 1.469 0s.408-1.061 0-1.469L5.958 4.587c-.408-.408-1.061-.408-1.469 0s-.408 1.061 0 1.469l2.245 2.245z"/>
    </symbol>
    <symbol id="icon-padlock" viewBox="0 0 32 32">
    <path d="M24.935 32h-17.953c-1.649 0-2.992-1.345-2.992-3v-14c0-1.655 1.343-3 2.992-3h17.953c1.649 0 2.992 1.345 2.992 3v14c0 1.655-1.343 3-2.992 3zM6.982 14c-0.549 0-0.997 0.448-0.997 1v14c0 0.552 0.448 1 0.997 1h17.953c0.549 0 0.997-0.448 0.997-1v-14c0-0.552-0.448-1-0.997-1h-17.953z"></path>
    <path d="M22.939 14c-0.551 0-0.997-0.448-0.997-1v-5c0-3.308-2.685-6-5.984-6s-5.984 2.692-5.984 6v5c0 0.552-0.447 1-0.997 1s-0.997-0.448-0.997-1v-5c0-4.412 3.579-8 7.979-8s7.979 3.588 7.979 8v5c0 0.552-0.447 1-0.997 1z"></path>
    <path d="M15.957 22.667c-1.467 0-2.66-1.196-2.66-2.667s1.193-2.667 2.66-2.667c1.467 0 2.66 1.196 2.66 2.667s-1.193 2.667-2.66 2.667zM15.957 19.334c-0.366 0-0.665 0.299-0.665 0.667s0.299 0.667 0.665 0.667c0.366 0 0.665-0.299 0.665-0.667s-0.299-0.667-0.665-0.667z"></path>
    <path d="M15.958 26.667c-0.551 0-0.997-0.448-0.997-1v-3.667c0-0.552 0.447-1 0.997-1s0.997 0.448 0.997 1v3.667c0 0.552-0.447 1-0.997 1z"></path>
    </symbol>
    <symbol id="icon-vk" viewBox="0 0 32 32">
    <path fill="#4c75a3" d="M16 0c-8.837 0-16 7.163-16 16s7.163 16 16 16c8.837 0 16-7.163 16-16s-7.163-16-16-16zM25.39 21.846l-2.76 0.038c0 0-0.594 0.118-1.373-0.421-1.034-0.709-2.006-2.552-2.764-2.316s-0.745 1.895-0.745 1.895c0.003 0.195-0.057 0.385-0.171 0.543-0.159 0.137-0.356 0.222-0.564 0.246h-1.223c0 0-2.737 0.162-5.126-2.335-2.627-2.712-4.941-8.128-4.941-8.128s-0.136-0.314 0.013-0.526c0.129-0.183 0.446-0.203 0.606-0.21 0.691-0.032 2.766-0.019 2.766-0.019 0.174-0.004 0.29 0.005 0.505 0.099 0.185 0.091 0.325 0.227 0.415 0.446 0.319 0.795 0.69 1.569 1.11 2.316 1.234 2.133 1.809 2.598 2.227 2.37 0.608-0.333 0.421-3.013 0.421-3.013s0-0.975-0.307-1.406c-0.231-0.27-0.558-0.441-0.912-0.478-0.166-0.023 0.107-0.409 0.461-0.581 0.53-0.261 1.47-0.261 2.577-0.261 0.487-0.018 0.975 0.031 1.448 0.147 1.019 0.246 0.674 1.194 0.674 3.472 0 0.728-0.133 1.756 0.394 2.105 0.227 0.145 0.779 0.021 2.164-2.328 0.442-0.777 0.826-1.587 1.147-2.421 0.062-0.133 0.156-0.248 0.274-0.335 0.124-0.062 0.264-0.086 0.402-0.069l3.107-0.021c0 0 0.933-0.111 1.084 0.312s-0.349 1.474-1.619 3.158c-2.084 2.779-2.316 2.526-0.585 4.124 1.653 1.535 1.996 2.282 2.053 2.375 0.686 1.133-0.758 1.223-0.758 1.223z"></path>
    </symbol>
    <symbol id="icon-closed-eye" viewBox="0 0 68 32">
    <path d="M61.462 5.608l0.459-0.439c0.892-0.896 1.102-2.664 0.484-3.951-0.623-1.298-1.849-1.591-2.723-0.708-30.585 31.025-52.848 1.527-53.784 0.259-0.789-1.072-2.033-1.017-2.768 0.121-0.739 1.143-0.703 2.931 0.079 4.006 0.042 0.058 0.739 0.983 2.010 2.351l-3.918 9.375c-0.559 1.337-0.266 3.083 0.656 3.901 0.315 0.275 0.673 0.414 1.020 0.414 0.659 0 1.3-0.486 1.672-1.36l3.831-9.159c2.148 1.897 4.902 3.969 8.184 5.719l-1.888 9.158c-0.313 1.508 0.272 3.081 1.305 3.529l0.563 0.121c0.835 0 1.615-0.796 1.869-2.026l1.87-9.033c3.029 1.202 6.417 2.013 10.074 2.206v9.071c0 1.57 0.874 2.837 1.956 2.837 1.081 0 1.955-1.268 1.955-2.837v-9.121c3.191-0.254 6.572-1.050 10.103-2.511l2.407 9.209c0.3 1.134 1.044 1.829 1.829 1.829l0.692-0.179c1.010-0.557 1.521-2.193 1.138-3.657l-2.343-8.972c3.215-1.733 6.538-4.014 9.97-7.040l3.168 6.136c0.386 0.741 0.975 1.139 1.563 1.139 0.41 0 0.82-0.181 1.172-0.57 0.867-0.941 1.042-2.719 0.396-3.972l-2.999-5.844z"></path>
    </symbol>
    <symbol id="icon-cross" viewBox="0 0 32 32">
    <path d="M31.355 0.656c-0.875-0.874-2.23-0.874-3.105 0l-12.245 12.24-12.244-12.24c-0.875-0.874-2.23-0.874-3.105 0s-0.875 2.229 0 3.104l12.244 12.24-12.244 12.24c-0.875 0.874-0.875 2.23 0 3.104 0.437 0.437 1.006 0.656 1.531 0.656s1.137-0.219 1.531-0.656l12.244-12.24 12.244 12.24c0.437 0.437 1.006 0.656 1.531 0.656s1.137-0.219 1.531-0.656c0.875-0.874 0.875-2.229 0-3.104l-12.245-12.24 12.245-12.24c0.962-0.874 0.962-2.273 0.087-3.104z"></path>
    </symbol>
    <symbol id="icon-box" viewBox="0 0 33 32">
    <path d="M20.563 5.687v-0.008l5.911 2.645 5.935-2.223-15.795-5.918-15.795 5.918 15.795 5.918 5.911-2.215-5.911-2.44 3.949-1.677z"></path>
    <path d="M0.82 8.075v17.753l14.808 5.549v-17.753l-14.808-5.549zM8.717 25.893l-3.949-1.48v-2.105l3.949 1.48v2.105z"></path>
    <path d="M26.486 10.294v4.941l-3.949 1.479v-4.941l-4.936 1.85v17.753l14.808-5.549v-17.753l-5.923 2.219z"></path>
    </symbol>
    <symbol id="icon-wallet" viewBox="0 0 31 32">
    <path d="M30.501 21.696c0-3.782-2.171-7.156-5.423-8.798-0.101 7.251-5.985 13.129-13.242 13.23 1.643 3.249 5.021 5.418 8.806 5.418 1.775 0 3.5-0.472 5.017-1.369l4.799 1.326-1.328-4.795c0.898-1.515 1.371-3.239 1.371-5.012v0z"></path>
    <path d="M23.292 12.708c0-6.416-5.224-11.636-11.646-11.636s-11.646 5.22-11.646 11.636c0 2.091 0.557 4.127 1.615 5.914l-1.572 5.678 5.684-1.571c1.789 1.057 3.827 1.614 5.92 1.614 6.422 0 11.646-5.22 11.646-11.636zM9.859 10h-1.787c0-1.969 1.603-3.571 3.574-3.571s3.574 1.602 3.574 3.571c0 0.999-0.424 1.96-1.162 2.635l-1.518 1.388v1.392h-1.787v-2.179l2.099-1.919c0.375-0.343 0.582-0.811 0.582-1.318 0-0.985-0.802-1.786-1.787-1.786s-1.787 0.801-1.787 1.786zM10.753 17.202h1.787v1.785h-1.787v-1.785z"></path>
    </symbol>
    <symbol id="icon-social" viewBox="0 0 31 32">
    <path d="M4.449 17.602h2.383c-0.243 0.665-0.376 1.383-0.376 2.131v9.007c0 0.312 0.054 0.611 0.153 0.89h-3.94c-1.472 0-2.669-1.197-2.669-2.669v-4.91c-0-2.453 1.995-4.448 4.448-4.448z"></path>
    <path d="M24.359 19.733c0-0.748-0.133-1.466-0.376-2.131h2.383c2.453 0 4.448 1.995 4.448 4.448v4.91c0 1.472-1.197 2.669-2.669 2.669h-3.94c0.099-0.279 0.153-0.578 0.153-0.89v-9.007z"></path>
    <path d="M12.684 15.284h5.448c2.453 0 4.448 1.996 4.448 4.448v9.007c0 0.491-0.398 0.89-0.89 0.89h-12.565c-0.491 0-0.89-0.398-0.89-0.89v-9.007c0-2.453 1.995-4.448 4.448-4.448z"></path>
    <path d="M15.407 3.49c2.95 0 5.35 2.4 5.35 5.35 0 2.001-1.104 3.748-2.735 4.666-0.774 0.435-1.665 0.684-2.614 0.684s-1.841-0.249-2.614-0.684c-1.631-0.917-2.735-2.665-2.735-4.666 0-2.95 2.4-5.35 5.35-5.35z"></path>
    <path d="M24.801 8.476c2.206 0 4.001 1.795 4.001 4.001s-1.795 4.001-4.001 4.001c-0.56 0-1.093-0.116-1.577-0.324-0.837-0.36-1.527-0.998-1.954-1.797-0.3-0.561-0.47-1.2-0.47-1.879 0-2.206 1.795-4.001 4.001-4.001z"></path>
    <path d="M6.014 8.476c2.206 0 4.001 1.795 4.001 4.001 0 0.679-0.171 1.319-0.47 1.879-0.427 0.799-1.117 1.437-1.954 1.797-0.484 0.208-1.017 0.324-1.577 0.324-2.206 0-4.001-1.795-4.001-4.001s1.795-4.001 4.001-4.001z"></path>
    </symbol>
    <symbol id="icon-support" viewBox="0 0 32 32">
    <path d="M29.436 26.226h-5.026c-3.167 0-5.744-2.574-5.744-5.738s2.577-5.738 5.744-5.738h5.026c0.397 0 0.718-0.321 0.718-0.717v-2.152c0-1.504-1.168-2.727-2.643-2.846l-4.123-7.195c-0.382-0.665-0.999-1.141-1.737-1.339-0.735-0.196-1.503-0.093-2.161 0.289l-14.135 8.222h-2.482c-1.584 0-2.872 1.287-2.872 2.869v17.215c0 1.582 1.288 2.869 2.872 2.869h24.41c1.584 0 2.872-1.287 2.872-2.869v-2.152c0-0.396-0.321-0.717-0.718-0.717zM24.277 6.281l1.564 2.73h-6.258l4.693-2.73zM8.208 9.011l12.004-6.982c0.325-0.19 0.704-0.24 1.067-0.144 0.367 0.098 0.672 0.335 0.862 0.666l0.002 0.003-11.1 6.457h-2.834z"></path>
    <path d="M29.436 16.184h-5.026c-2.375 0-4.308 1.93-4.308 4.304s1.932 4.304 4.308 4.304h5.026c1.188 0 2.154-0.965 2.154-2.152v-4.304c0-1.187-0.966-2.152-2.154-2.152zM24.41 21.922c-0.792 0-1.436-0.644-1.436-1.434s0.644-1.435 1.436-1.435c0.792 0 1.436 0.644 1.436 1.435s-0.644 1.434-1.436 1.434z"></path>
    </symbol>
    <symbol id="icon-pin" viewBox="0 0 16 32">
    <path  d="M11.696 17.24l-0.819-8.652h-6.126l-0.819 8.652h7.764z"></path>
    <path  d="M14.577 20.626c0-0.346-0.064-0.688-0.19-1.008s-0.309-0.61-0.54-0.854c-0.231-0.245-0.506-0.438-0.808-0.571s-0.626-0.2-0.954-0.2h-8.543c-0.327 0-0.651 0.068-0.954 0.2s-0.577 0.326-0.808 0.571c-0.231 0.245-0.415 0.535-0.54 0.854s-0.19 0.662-0.19 1.008l0 1.128h13.527l0-1.129z"></path>
    <path d="M12.738 5.203h-9.848l1.602 2.633h6.643l1.602-2.633z"></path>
    <path d="M8.881 29.743v-7.236h-2.136v7.236l1.068 2.257 1.068-2.257z"></path>
    <symbol id="icon-person" viewBox="0 0 30 32">
    <path d="M24.932 19.7c-1.376-1.376-3.013-2.394-4.8-3.011 1.914-1.318 3.171-3.524 3.171-6.018 0-4.027-3.276-7.303-7.303-7.303s-7.303 3.276-7.303 7.303c0 2.494 1.257 4.7 3.171 6.018-1.787 0.617-3.424 1.635-4.8 3.011-2.386 2.386-3.7 5.558-3.7 8.932h1.974c0-5.877 4.781-10.658 10.658-10.658s10.658 4.781 10.658 10.658h1.974c0-3.374-1.314-6.546-3.7-8.932zM16 16c-2.938 0-5.329-2.391-5.329-5.329s2.391-5.329 5.329-5.329c2.938 0 5.329 2.391 5.329 5.329s-2.391 5.329-5.329 5.329z"></path>
    </symbol>
    <symbol id="icon-search" viewBox="0 0 30 32">
    <path d="M13.536 23.696c2.258 0 4.451-0.754 6.233-2.141l6.721 6.722c0.502 0.485 1.302 0.471 1.787-0.031 0.473-0.49 0.473-1.266 0-1.756l-6.721-6.722c3.443-4.433 2.641-10.818-1.791-14.262s-10.816-2.642-14.259 1.791-2.641 10.818 1.791 14.262c1.784 1.386 3.98 2.138 6.239 2.137zM8.136 8.133c2.982-2.983 7.818-2.983 10.8-0s2.982 7.819 0 10.802c-2.982 2.983-7.818 2.983-10.8 0-2.982-2.961-3-7.78-0.039-10.763 0.013-0.013 0.026-0.026 0.039-0.039z"></path>
    </symbol>
    <symbol id="icon-shevron" viewBox="0 0 44 32">
    <path fill="none" stroke-linejoin="miter" stroke-linecap="butt" stroke-miterlimit="4" stroke-width="5.8182" d="M40.727 29.091l-19.266-23.273-18.552 23.273"></path>
    </symbol>
</defs>
</svg>


