<svg aria-hidden="true" style="position: absolute; width: 0; height: 0; overflow: hidden;" version="1.1" xmlns="http://www.w3.org/2000/svg" xmlns:xlink="http://www.w3.org/1999/xlink">
<defs>
    <symbol id="icon-envelope" viewBox="0 0 32 32">
    <path fill="#392955" d="M0 3.556v23.444h30.778v-23.444h-30.778zM27.551 5.359l-12.162 11.102-12.162-11.102h24.324zM28.975 25.197h-27.172v-18.695l13.586 12.402 13.586-12.402v18.695z"></path>
    </symbol>
    <symbol id="icon-eye" viewBox="0 0 32 32">
    <path fill="#777" d="M16 26.343c-5.989 0-11.724-4.407-15.509-8.981-0.654-0.791-0.654-1.938 0-2.729 0.952-1.15 2.946-3.369 5.611-5.309 6.711-4.885 13.074-4.894 19.798 0 3.13 2.278 5.611 5.266 5.611 5.309 0.654 0.791 0.654 1.938 0 2.729-3.785 4.574-9.519 8.981-15.509 8.981zM16 7.623c-6.635 0-12.386 6.327-13.991 8.267-0.052 0.063-0.052 0.154 0 0.216 1.605 1.939 7.356 8.267 13.991 8.267s12.386-6.327 13.991-8.267c0.094-0.113-0.006-0.216 0-0.216-1.605-1.939-7.356-8.267-13.991-8.267z"></path>
    <path fill="#777" d="M16 22.894c-3.803 0-6.897-3.094-6.897-6.897s3.094-6.897 6.897-6.897c3.803 0 6.897 3.094 6.897 6.897s-3.094 6.897-6.897 6.897zM16 11.070c-2.716 0-4.926 2.21-4.926 4.927s2.21 4.926 4.926 4.926c2.716 0 4.926-2.21 4.926-4.926s-2.21-4.927-4.926-4.927z"></path>
    </symbol>
    <symbol id="icon-facebook" viewBox="0 0 32 32">
    <path fill="#3b5998" d="M16 32c8.837 0 16-7.163 16-16s-7.163-16-16-16c-8.837 0-16 7.163-16 16s7.163 16 16 16z"></path>
    <path fill="#fff" d="M20.023 16.626h-2.855v10.459h-4.326v-10.459h-2.057v-3.676h2.057v-2.379c0-1.701 0.808-4.365 4.364-4.365l3.204 0.013v3.568h-2.325c-0.381 0-0.918 0.191-0.918 1.002v2.163h3.233l-0.378 3.672z"></path>
    </symbol>
    <symbol id="icon-google" viewBox="0 0 32 32">
    <path fill="#167ee6" d="M30.792 13.218l-13.052-0.001c-0.576 0-1.044 0.467-1.044 1.044v4.17c0 0.576 0.467 1.043 1.044 1.043h7.35c-0.805 2.089-2.307 3.838-4.224 4.95l3.134 5.426c5.028-2.908 8-8.009 8-13.721 0-0.813-0.060-1.394-0.18-2.049-0.091-0.497-0.523-0.862-1.028-0.862z"></path>
    <path fill="#12b347" d="M16 25.739c-3.597 0-6.737-1.965-8.424-4.874l-5.425 3.127c2.761 4.785 7.933 8.007 13.849 8.007 2.902 0 5.641-0.781 8-2.143v-0.007l-3.134-5.426c-1.434 0.831-3.093 1.315-4.866 1.315z"></path>
    <path fill="#0f993e" d="M24 29.857v-0.007l-3.134-5.426c-1.434 0.831-3.092 1.315-4.866 1.315v6.261c2.902 0 5.641-0.781 8-2.143z"></path>
    <path fill="#ffd500" d="M6.261 16c0-1.773 0.484-3.432 1.315-4.865l-5.425-3.127c-1.369 2.352-2.151 5.083-2.151 7.993s0.781 5.641 2.151 7.993l5.425-3.127c-0.831-1.434-1.315-3.092-1.315-4.865z"></path>
    <path fill="#ff4b26" d="M16 6.261c2.346 0 4.5 0.833 6.183 2.22 0.415 0.342 1.019 0.317 1.399-0.063l2.954-2.954c0.431-0.431 0.401-1.138-0.060-1.538-2.82-2.446-6.488-3.926-10.476-3.926-5.916 0-11.088 3.222-13.849 8.007l5.425 3.127c1.687-2.908 4.827-4.874 8.424-4.874z"></path>
    <path fill="#d93f21" d="M22.183 8.481c0.415 0.342 1.019 0.317 1.399-0.063l2.954-2.954c0.431-0.431 0.401-1.138-0.060-1.538-2.82-2.446-6.488-3.926-10.476-3.926v6.261c2.346 0 4.5 0.833 6.183 2.22z"></path>
    </symbol>
    <symbol id="icon-moon" viewBox="0 0 32 32">
    <path fill="#fff" d="M16.819 31.663c5.879 0.063 11.25-3.39 13.726-8.826-1.559 0.693-3.247 1.033-4.947 0.995-6.664-0.008-12.065-5.513-12.072-12.307 0.067-4.595 2.554-8.799 6.51-11.002-1.067-0.138-2.142-0.2-3.218-0.185-8.486 0-15.364 7.013-15.364 15.663s6.879 15.663 15.364 15.663z"></path>
    </symbol>
    <symbol id="icon-padlock" viewBox="0 0 32 32">
    <path fill="#392955" d="M24.935 32h-17.953c-1.649 0-2.992-1.345-2.992-3v-14c0-1.655 1.343-3 2.992-3h17.953c1.649 0 2.992 1.345 2.992 3v14c0 1.655-1.343 3-2.992 3zM6.982 14c-0.549 0-0.997 0.448-0.997 1v14c0 0.552 0.448 1 0.997 1h17.953c0.549 0 0.997-0.448 0.997-1v-14c0-0.552-0.448-1-0.997-1h-17.953z"></path>
    <path fill="#392955" d="M22.939 14c-0.551 0-0.997-0.448-0.997-1v-5c0-3.308-2.685-6-5.984-6s-5.984 2.692-5.984 6v5c0 0.552-0.447 1-0.997 1s-0.997-0.448-0.997-1v-5c0-4.412 3.579-8 7.979-8s7.979 3.588 7.979 8v5c0 0.552-0.447 1-0.997 1z"></path>
    <path fill="#392955" d="M15.957 22.667c-1.467 0-2.66-1.196-2.66-2.667s1.193-2.667 2.66-2.667c1.467 0 2.66 1.196 2.66 2.667s-1.193 2.667-2.66 2.667zM15.957 19.334c-0.366 0-0.665 0.299-0.665 0.667s0.299 0.667 0.665 0.667c0.366 0 0.665-0.299 0.665-0.667s-0.299-0.667-0.665-0.667z"></path>
    <path fill="#392955" d="M15.958 26.667c-0.551 0-0.997-0.448-0.997-1v-3.667c0-0.552 0.447-1 0.997-1s0.997 0.448 0.997 1v3.667c0 0.552-0.447 1-0.997 1z"></path>
    </symbol>
    <symbol id="icon-vk" viewBox="0 0 32 32">
    <path fill="#4c75a3" d="M16 0c-8.837 0-16 7.163-16 16s7.163 16 16 16c8.837 0 16-7.163 16-16s-7.163-16-16-16zM25.39 21.846l-2.76 0.038c0 0-0.594 0.118-1.373-0.421-1.034-0.709-2.006-2.552-2.764-2.316s-0.745 1.895-0.745 1.895c0.003 0.195-0.057 0.385-0.171 0.543-0.159 0.137-0.356 0.222-0.564 0.246h-1.223c0 0-2.737 0.162-5.126-2.335-2.627-2.712-4.941-8.128-4.941-8.128s-0.136-0.314 0.013-0.526c0.129-0.183 0.446-0.203 0.606-0.21 0.691-0.032 2.766-0.019 2.766-0.019 0.174-0.004 0.29 0.005 0.505 0.099 0.185 0.091 0.325 0.227 0.415 0.446 0.319 0.795 0.69 1.569 1.11 2.316 1.234 2.133 1.809 2.598 2.227 2.37 0.608-0.333 0.421-3.013 0.421-3.013s0-0.975-0.307-1.406c-0.231-0.27-0.558-0.441-0.912-0.478-0.166-0.023 0.107-0.409 0.461-0.581 0.53-0.261 1.47-0.261 2.577-0.261 0.487-0.018 0.975 0.031 1.448 0.147 1.019 0.246 0.674 1.194 0.674 3.472 0 0.728-0.133 1.756 0.394 2.105 0.227 0.145 0.779 0.021 2.164-2.328 0.442-0.777 0.826-1.587 1.147-2.421 0.062-0.133 0.156-0.248 0.274-0.335 0.124-0.062 0.264-0.086 0.402-0.069l3.107-0.021c0 0 0.933-0.111 1.084 0.312s-0.349 1.474-1.619 3.158c-2.084 2.779-2.316 2.526-0.585 4.124 1.653 1.535 1.996 2.282 2.053 2.375 0.686 1.133-0.758 1.223-0.758 1.223z"></path>
    </symbol>
</defs>
</svg>
