<svg width="20" height="20" viewBox="0 0 20 20" fill="none" xmlns="http://www.w3.org/2000/svg">
    <g clip-path="url(#clip0_7678_42596)">
    <path d="M10 0C4.47301 0 0 4.4725 0 10C0 15.5269 4.4725 20 10 20C15.527 20 20 15.5275 20 10C20 4.47301 15.5275 0 10 0ZM10 18.6046C5.25539 18.6046 1.39535 14.7446 1.39535 10C1.39535 5.25535 5.25539 1.39535 10 1.39535C14.7446 1.39535 18.6046 5.25535 18.6046 10C18.6046 14.7446 14.7446 18.6046 10 18.6046Z" fill="#392955"/>
    <path d="M9.704 12.6523C9.15115 12.6523 8.70361 13.113 8.70361 13.6659C8.70361 14.2056 9.13799 14.6795 9.704 14.6795C10.27 14.6795 10.7175 14.2056 10.7175 13.6659C10.7175 13.113 10.2568 12.6523 9.704 12.6523Z" fill="#392955"/>
    <path d="M9.87511 4.97852C8.09808 4.97852 7.28198 6.0316 7.28198 6.74238C7.28198 7.25574 7.71636 7.4927 8.07175 7.4927C8.78257 7.4927 8.493 6.4791 9.83562 6.4791C10.4937 6.4791 11.0203 6.76871 11.0203 7.37422C11.0203 8.085 10.2832 8.49305 9.84878 8.8616C9.46702 9.19063 8.96687 9.73035 8.96687 10.8624C8.96687 11.5468 9.15116 11.7443 9.69081 11.7443C10.3358 11.7443 10.4674 11.4547 10.4674 11.2046C10.4674 10.5201 10.4806 10.1252 11.2046 9.55922C11.56 9.28281 12.6788 8.3877 12.6788 7.15039C12.6788 5.91309 11.56 4.97852 9.87511 4.97852Z" fill="#392955"/>
    </g>
    <defs>
    <clipPath id="clip0_7678_42596">
    <rect width="20" height="20" fill="white"/>
    </clipPath>
    </defs>
    </svg>
    