<svg width="20" height="21" viewBox="0 0 20 21" fill="none" xmlns="http://www.w3.org/2000/svg">
    <path d="M20 3.83203H0V17.1655H20V3.83203Z" fill="#F0F0F0"/>
    <path d="M11.25 3.83203H8.75V9.24867H0V11.7487H8.75V17.1653H11.25V11.7487H20V9.24867H11.25V3.83203Z" fill="#D80027"/>
    <path d="M4.80941 6.10395V5.23438H3.93988V6.10395H3.07031V6.97352H3.93988V7.84309H4.80941V6.97352H5.67898V6.10395H4.80941Z" fill="#D80027"/>
    <path d="M16.0594 6.10395V5.23438H15.1899V6.10395H14.3203V6.97352H15.1899V7.84309H16.0594V6.97352H16.929V6.10395H16.0594Z" fill="#D80027"/>
    <path d="M4.80941 14.0219V13.1523H3.93988V14.0219H3.07031V14.8915H3.93988V15.7611H4.80941V14.8915H5.67898V14.0219H4.80941Z" fill="#D80027"/>
    <path d="M16.0594 14.0219V13.1523H15.1899V14.0219H14.3203V14.8915H15.1899V15.7611H16.0594V14.8915H16.929V14.0219H16.0594Z" fill="#D80027"/>
    </svg>
    