<svg width="20" height="21" viewBox="0 0 20 21" fill="none" xmlns="http://www.w3.org/2000/svg">
<path d="M19.6551 3.94824H0.344843C0.154414 3.94824 0 4.10262 0 4.29305V16.7068C0 16.8972 0.154414 17.0517 0.344843 17.0517H19.6552C19.8456 17.0517 20 16.8972 20 16.7068V4.29305C20 4.10262 19.8455 3.94824 19.6551 3.94824Z" fill="#82C3D2"/>
<path d="M2.32168 5.51699C2.29047 5.38484 2.28269 5.33613 2.34199 5.27688C2.3709 5.24797 2.3709 5.20113 2.34199 5.17223C2.31308 5.14332 2.26625 5.14332 2.23734 5.17223C2.11734 5.29227 2.14597 5.41684 2.17703 5.54875C2.08242 5.51785 1.98429 5.54078 1.93172 5.60711C1.90562 5.64019 1.85515 5.73301 1.94972 5.88121C1.97172 5.91562 2.01719 5.92574 2.05191 5.90394C2.0864 5.88195 2.09644 5.83613 2.07445 5.80176C2.03898 5.74594 2.03793 5.71152 2.04785 5.69894C2.05957 5.68406 2.0959 5.67621 2.13394 5.68969C2.15851 5.6982 2.21562 5.72769 2.21562 5.81676C2.21562 5.88789 2.18273 5.95308 2.12539 5.99543C2.06793 6.03793 1.99355 6.04992 1.92187 6.02766C1.83336 6.00062 1.77152 5.90738 1.77152 5.80086C1.77152 5.72465 1.78785 5.64762 1.81785 5.58012C1.82262 5.57016 1.93574 5.33582 1.96488 5.24848C2.0225 5.0757 1.96394 4.98883 1.92398 4.95254C1.87051 4.90383 1.79234 4.89168 1.72508 4.92117C1.71484 4.9257 1.7064 4.93227 1.69754 4.93836C1.68867 4.93223 1.68019 4.9257 1.67 4.92117C1.60277 4.89168 1.52465 4.90383 1.47109 4.95254C1.43113 4.98883 1.37258 5.07574 1.43019 5.24848C1.45934 5.33582 1.57242 5.57016 1.57617 5.57797C1.60715 5.64766 1.62351 5.72469 1.62351 5.8009C1.62351 5.90746 1.56172 6.00066 1.47316 6.02769C1.40121 6.04992 1.32707 6.03808 1.26965 5.99547C1.2123 5.95308 1.17941 5.88793 1.17941 5.8168C1.17941 5.72773 1.23652 5.69828 1.26109 5.68973C1.29926 5.67629 1.33539 5.68406 1.34719 5.69898C1.35711 5.71156 1.35605 5.74598 1.32059 5.8018C1.29859 5.83621 1.30863 5.88203 1.34312 5.90398C1.37789 5.92598 1.42351 5.9157 1.44531 5.88125C1.53984 5.73305 1.48941 5.64027 1.46332 5.60715C1.4107 5.54082 1.31262 5.51789 1.21801 5.54879C1.2491 5.41695 1.27769 5.2923 1.1577 5.17227C1.12879 5.14336 1.08195 5.14336 1.05305 5.17227C1.02414 5.20117 1.02414 5.24801 1.05305 5.27691C1.1123 5.33617 1.10461 5.38488 1.07336 5.51703C1.05461 5.59621 1.03133 5.69496 1.03133 5.81668C1.03133 5.89766 1.0598 5.97512 1.1077 6.03875H1.10531C1.06441 6.03875 1.03129 6.07183 1.03129 6.11277C1.03129 6.15367 1.06437 6.18679 1.10531 6.18679H1.1077C1.0598 6.25043 1.03133 6.32785 1.03133 6.40883C1.03133 6.53054 1.05461 6.62929 1.07332 6.70851C1.10453 6.84066 1.1123 6.88937 1.05301 6.94863C1.0241 6.97754 1.0241 7.02437 1.05301 7.05328C1.06746 7.06773 1.08641 7.07496 1.10535 7.07496C1.12426 7.07496 1.14324 7.06773 1.1577 7.05328C1.27769 6.93324 1.24906 6.80863 1.21801 6.67675C1.31262 6.70754 1.41074 6.68472 1.46332 6.6184C1.48941 6.58531 1.53988 6.4925 1.44531 6.3443C1.4234 6.30988 1.37766 6.29965 1.34312 6.32156C1.30863 6.34355 1.29859 6.38937 1.32059 6.42375C1.35605 6.47957 1.35711 6.51398 1.34719 6.52656C1.33543 6.54129 1.29926 6.5491 1.26109 6.53582C1.23652 6.5273 1.17941 6.49781 1.17941 6.40875C1.17941 6.33762 1.2123 6.27242 1.26965 6.23008C1.32711 6.18758 1.40141 6.17543 1.47316 6.19785C1.56168 6.22488 1.62351 6.31812 1.62351 6.42465C1.62351 6.50086 1.60719 6.57789 1.57617 6.64758L1.09137 7.73824C1.05152 7.82785 1.03129 7.92316 1.03129 8.02128C1.03129 8.14757 1.08871 8.26289 1.1791 8.33328C1.08875 8.40367 1.03129 8.51898 1.03129 8.64527C1.03129 8.74343 1.05156 8.8387 1.09137 8.92831L1.57609 10.0189C1.60707 10.0886 1.62344 10.1656 1.62344 10.2418C1.62344 10.3484 1.56164 10.4416 1.47309 10.4686C1.40113 10.491 1.32699 10.479 1.26957 10.4364C1.21223 10.394 1.17934 10.3289 1.17934 10.2577C1.17934 10.1687 1.23644 10.1392 1.26102 10.1307C1.29918 10.1173 1.33531 10.125 1.34711 10.1399C1.35703 10.1525 1.35598 10.1869 1.32051 10.2427C1.29852 10.2771 1.30855 10.323 1.34305 10.3449C1.37781 10.3669 1.42344 10.3567 1.44523 10.3222C1.53976 10.174 1.48934 10.0812 1.46324 10.0481C1.41062 9.98175 1.31254 9.9589 1.21793 9.98972C1.24902 9.85788 1.27762 9.73323 1.15762 9.61319C1.12871 9.58429 1.08187 9.58429 1.05297 9.61319C1.02406 9.6421 1.02406 9.68894 1.05297 9.71784C1.11223 9.7771 1.10453 9.82581 1.07328 9.95796C1.05457 10.0372 1.03129 10.1359 1.03129 10.2576C1.03129 10.3386 1.05977 10.4161 1.10766 10.4797H1.10527C1.06437 10.4797 1.03125 10.5128 1.03125 10.5537C1.03125 10.5947 1.06434 10.6278 1.10527 10.6278H1.10766C1.05973 10.6914 1.03129 10.7688 1.03129 10.8498C1.03129 10.9716 1.05457 11.0703 1.07328 11.1495C1.10449 11.2817 1.11227 11.3304 1.05297 11.3896C1.02406 11.4185 1.02406 11.4654 1.05297 11.4943C1.06742 11.5087 1.08637 11.516 1.10531 11.516C1.12422 11.516 1.1432 11.5087 1.15766 11.4943C1.27766 11.3742 1.24902 11.2496 1.21797 11.1178C1.31258 11.1485 1.4107 11.1257 1.46328 11.0594C1.48937 11.0263 1.53984 10.9335 1.44527 10.7853C1.42336 10.7509 1.37762 10.7407 1.34309 10.7626C1.30859 10.7846 1.29855 10.8304 1.32055 10.8648C1.35601 10.9206 1.35707 10.955 1.34715 10.9676C1.33539 10.9824 1.29922 10.9903 1.26105 10.9768C1.23648 10.9683 1.17937 10.9388 1.17937 10.8498C1.17937 10.7786 1.21227 10.7134 1.26961 10.6711C1.32707 10.6286 1.40137 10.6164 1.47312 10.6389C1.56164 10.6659 1.62348 10.7591 1.62348 10.8657C1.62348 10.9419 1.60715 11.0189 1.57613 11.0886L1.09137 12.1794C1.05152 12.269 1.03129 12.3643 1.03129 12.4624C1.03129 12.5887 1.08871 12.704 1.1791 12.7744C1.08875 12.8448 1.03129 12.9601 1.03129 13.0864C1.03129 13.1846 1.05156 13.2798 1.09137 13.3694L1.57609 14.46C1.60707 14.5297 1.62344 14.6067 1.62344 14.683C1.62344 14.7895 1.56164 14.8827 1.47309 14.9097C1.40113 14.9322 1.32699 14.92 1.26957 14.8775C1.21223 14.8351 1.17934 14.77 1.17934 14.6988C1.17934 14.6098 1.23644 14.5803 1.26102 14.5718C1.29918 14.5585 1.33531 14.5661 1.34711 14.581C1.35703 14.5936 1.35598 14.628 1.32051 14.6838C1.29852 14.7183 1.30855 14.764 1.34305 14.786C1.37781 14.808 1.42344 14.7979 1.44523 14.7633C1.53976 14.6151 1.48934 14.5223 1.46324 14.4892C1.41062 14.4227 1.31254 14.3999 1.21793 14.4308C1.24902 14.299 1.27762 14.1744 1.15762 14.0543C1.12871 14.0254 1.08187 14.0254 1.05297 14.0543C1.02406 14.0832 1.02406 14.1301 1.05297 14.159C1.11223 14.2182 1.10453 14.2669 1.07328 14.3991C1.05457 14.4783 1.03129 14.577 1.03129 14.6987C1.03129 14.8147 1.08687 14.9252 1.1798 14.9948C1.08687 15.0644 1.03129 15.1749 1.03129 15.2909C1.03129 15.4126 1.05457 15.5114 1.07328 15.5906C1.10449 15.7227 1.11227 15.7715 1.05297 15.8307C1.02406 15.8596 1.02406 15.9065 1.05297 15.9354C1.06742 15.9498 1.08637 15.9571 1.10531 15.9571C1.12422 15.9571 1.1432 15.9498 1.15766 15.9354C1.27766 15.8153 1.24902 15.6907 1.21797 15.5588C1.31258 15.5896 1.4107 15.5668 1.46328 15.5005C1.48937 15.4674 1.53984 15.3746 1.44527 15.2264C1.42336 15.192 1.37762 15.1819 1.34309 15.2037C1.30859 15.2256 1.29855 15.2715 1.32055 15.3058C1.35601 15.3617 1.35707 15.3961 1.34715 15.4087C1.33539 15.4235 1.29922 15.4312 1.26105 15.4179C1.23648 15.4094 1.17937 15.3799 1.17937 15.2908C1.17937 15.2197 1.21227 15.1545 1.26961 15.1122C1.32707 15.0697 1.40137 15.0577 1.47312 15.0799C1.56164 15.107 1.62348 15.2002 1.62348 15.3067C1.62348 15.3829 1.60715 15.46 1.57715 15.5275C1.57238 15.5374 1.45926 15.7718 1.43012 15.8591C1.3725 16.0319 1.43105 16.1188 1.47101 16.1551C1.50519 16.1862 1.54922 16.2025 1.59422 16.2025C1.61973 16.2025 1.64558 16.1971 1.66996 16.1865C1.68019 16.1819 1.68863 16.1754 1.6975 16.1693C1.70637 16.1754 1.71484 16.1819 1.72504 16.1865C1.74937 16.1972 1.77527 16.2025 1.80078 16.2025C1.84566 16.2025 1.88976 16.1862 1.92398 16.1551C1.96394 16.1188 2.0225 16.0319 1.96488 15.8591C1.93574 15.7718 1.82265 15.5374 1.8189 15.5296C1.78793 15.4599 1.77156 15.3829 1.77156 15.3067C1.77156 15.2001 1.83336 15.1069 1.92191 15.0799C1.9939 15.0576 2.06801 15.0696 2.12543 15.1121C2.18277 15.1545 2.21566 15.2197 2.21566 15.2908C2.21566 15.3799 2.15855 15.4093 2.13398 15.4179C2.09597 15.4312 2.05957 15.4235 2.04789 15.4086C2.03797 15.396 2.03902 15.3616 2.07449 15.3058C2.09648 15.2714 2.08644 15.2256 2.05195 15.2036C2.01738 15.1819 1.97179 15.1921 1.94976 15.2263C1.85523 15.3746 1.90566 15.4673 1.93176 15.5004C1.98437 15.5668 2.08246 15.5896 2.17707 15.5588C2.14597 15.6906 2.11738 15.8153 2.23738 15.9353C2.25183 15.9498 2.27078 15.957 2.28972 15.957C2.30867 15.957 2.32761 15.9498 2.34207 15.9353C2.37097 15.9064 2.37097 15.8596 2.34207 15.8307C2.28281 15.7714 2.29051 15.7227 2.32176 15.5906C2.34047 15.5113 2.36375 15.4126 2.36375 15.2909C2.36375 15.1749 2.30816 15.0644 2.21523 14.9948C2.30816 14.9252 2.36375 14.8147 2.36375 14.6987C2.36375 14.577 2.34047 14.4782 2.32176 14.399C2.29054 14.2669 2.28277 14.2181 2.34207 14.1589C2.37097 14.13 2.37097 14.0831 2.34207 14.0542C2.31316 14.0253 2.26633 14.0253 2.23742 14.0542C2.11742 14.1743 2.14605 14.2989 2.17711 14.4308C2.0825 14.3999 1.98437 14.4226 1.9318 14.4891C1.9057 14.5222 1.85523 14.615 1.9498 14.7632C1.97179 14.7976 2.01726 14.8078 2.05199 14.786C2.08648 14.764 2.09652 14.7181 2.07453 14.6838C2.03906 14.628 2.03801 14.5935 2.04793 14.581C2.05965 14.5661 2.09597 14.5584 2.13402 14.5717C2.15859 14.5802 2.2157 14.6097 2.2157 14.6988C2.2157 14.7699 2.18281 14.8351 2.12547 14.8774C2.06801 14.9199 1.99363 14.9321 1.92195 14.9097C1.83344 14.8826 1.7716 14.7894 1.7716 14.6829C1.7716 14.6067 1.78793 14.5296 1.81894 14.4599L2.30367 13.3694C2.34351 13.2797 2.36375 13.1844 2.36375 13.0863C2.36375 12.96 2.30633 12.8447 2.21593 12.7743C2.30629 12.7039 2.36375 12.5886 2.36375 12.4623C2.36375 12.3642 2.34347 12.2689 2.30367 12.1793L1.81898 11.0888C1.78801 11.0191 1.77164 10.9421 1.77164 10.8658C1.77164 10.7593 1.83344 10.6661 1.92199 10.6391C1.99398 10.6168 2.06808 10.6288 2.12551 10.6713C2.18285 10.7137 2.21574 10.7788 2.21574 10.85C2.21574 10.939 2.15863 10.9685 2.13406 10.977C2.09605 10.9905 2.05965 10.9827 2.04797 10.9678C2.03804 10.9552 2.0391 10.9208 2.07457 10.865C2.09656 10.8305 2.08652 10.7848 2.05203 10.7628C2.01746 10.7411 1.97187 10.7512 1.94984 10.7855C1.85531 10.9337 1.90574 11.0265 1.93183 11.0596C1.98445 11.1259 2.08254 11.1488 2.17715 11.118C2.14605 11.2498 2.11746 11.3744 2.23746 11.4945C2.25191 11.5089 2.27086 11.5162 2.2898 11.5162C2.30875 11.5162 2.32769 11.5089 2.34215 11.4945C2.37105 11.4656 2.37105 11.4187 2.34215 11.3898C2.28289 11.3306 2.29058 11.2819 2.32183 11.1497C2.34054 11.0705 2.36383 10.9717 2.36383 10.85C2.36383 10.7691 2.33535 10.6916 2.28746 10.628H2.28984C2.33074 10.628 2.36386 10.5949 2.36386 10.5539C2.36386 10.513 2.33078 10.4799 2.28984 10.4799H2.28746C2.33539 10.4163 2.36383 10.3389 2.36383 10.2578C2.36383 10.1361 2.34054 10.0374 2.32183 9.95816C2.29062 9.82601 2.28285 9.7773 2.34215 9.71804C2.37105 9.68913 2.37105 9.6423 2.34215 9.61339C2.31324 9.58448 2.2664 9.58448 2.2375 9.61339C2.1175 9.73343 2.14613 9.85804 2.17719 9.98991C2.08258 9.95913 1.98445 9.98194 1.93187 10.0483C1.90578 10.0814 1.85531 10.1742 1.94988 10.3224C1.97187 10.3568 2.01734 10.3668 2.05207 10.3451C2.08656 10.3231 2.0966 10.2773 2.07461 10.2429C2.03914 10.1871 2.03808 10.1527 2.04801 10.1401C2.05972 10.1252 2.09605 10.1176 2.1341 10.1308C2.15867 10.1394 2.21578 10.1689 2.21578 10.2579C2.21578 10.3291 2.18289 10.3942 2.12554 10.4366C2.06808 10.4791 1.99371 10.4911 1.92203 10.4688C1.83351 10.4418 1.77168 10.3485 1.77168 10.242C1.77168 10.1658 1.78801 10.0888 1.81902 10.0191L2.30375 8.92851C2.34359 8.8389 2.36383 8.74359 2.36383 8.64546C2.36383 8.51917 2.3064 8.40386 2.21601 8.33347C2.30636 8.26308 2.36383 8.14777 2.36383 8.02148C2.36383 7.92332 2.34355 7.82804 2.30375 7.73843L1.81902 6.64785C1.78805 6.57816 1.77168 6.50113 1.77168 6.42492C1.77168 6.31836 1.83347 6.22515 1.92203 6.19812C1.99402 6.17586 2.06812 6.18785 2.12554 6.23035C2.18289 6.27273 2.21578 6.33789 2.21578 6.40902C2.21578 6.49808 2.15867 6.52754 2.1341 6.53609C2.09609 6.54941 2.05969 6.54156 2.04801 6.52683C2.03808 6.51426 2.03914 6.47984 2.07461 6.42402C2.0966 6.38961 2.08656 6.34379 2.05207 6.32183C2.0175 6.30015 1.97191 6.31012 1.94988 6.34453C1.85535 6.49273 1.90578 6.58551 1.93187 6.61863C1.98449 6.68496 2.08258 6.70781 2.17719 6.67699C2.14609 6.80883 2.1175 6.93347 2.2375 7.05351C2.25195 7.06797 2.2709 7.07519 2.28984 7.07519C2.30879 7.07519 2.32773 7.06797 2.34218 7.05351C2.37109 7.02461 2.37109 6.97777 2.34218 6.94886C2.28293 6.88961 2.29062 6.8409 2.32187 6.70875C2.34058 6.62953 2.36386 6.53078 2.36386 6.40906C2.36386 6.32808 2.33539 6.25062 2.2875 6.18699H2.28988C2.33078 6.18699 2.3639 6.1539 2.3639 6.11297C2.3639 6.07207 2.33082 6.03894 2.28988 6.03894H2.2875C2.33543 5.97531 2.36386 5.89793 2.36386 5.81687C2.36363 5.69496 2.34035 5.59621 2.32168 5.51699ZM1.57051 5.20156C1.54422 5.12266 1.5534 5.0777 1.57074 5.06191C1.58207 5.05121 1.59926 5.05164 1.61015 5.05656C1.62351 5.0625 1.62351 5.07191 1.62351 5.07652C1.62351 5.11742 1.6566 5.15055 1.69754 5.15055C1.73844 5.15055 1.77156 5.11746 1.77156 5.07652C1.77156 5.07191 1.77156 5.0625 1.78492 5.05656C1.79562 5.05164 1.81269 5.05121 1.82433 5.06191C1.84168 5.0777 1.85086 5.12266 1.82457 5.20156C1.80543 5.25879 1.73617 5.40777 1.69758 5.48863C1.65976 5.40965 1.58976 5.25918 1.57051 5.20156ZM1.6975 8.25566C1.71875 8.28453 1.74277 8.3114 1.77199 8.33328C1.74277 8.35519 1.71875 8.38203 1.6975 8.41089C1.67625 8.38203 1.65223 8.35515 1.62301 8.33328C1.65223 8.31136 1.67625 8.28456 1.6975 8.25566ZM1.6975 12.6967C1.71875 12.7256 1.74277 12.7525 1.77199 12.7744C1.74277 12.7963 1.71875 12.8231 1.6975 12.852C1.67625 12.8231 1.65223 12.7962 1.62301 12.7744C1.65223 12.7524 1.67625 12.7257 1.6975 12.6967ZM1.82445 15.9061C1.85074 15.985 1.84156 16.03 1.82422 16.0458C1.81258 16.0563 1.79551 16.0559 1.7848 16.0511C1.77144 16.0452 1.77144 16.0358 1.77144 16.0312C1.77144 15.9903 1.73836 15.9571 1.69742 15.9571C1.65648 15.9571 1.6234 15.9902 1.6234 16.0312C1.6234 16.0358 1.6234 16.0452 1.61004 16.0511C1.59918 16.0559 1.58199 16.0563 1.57062 16.0458C1.55328 16.03 1.5441 15.985 1.57039 15.9061C1.58953 15.8489 1.65879 15.6999 1.69738 15.619C1.73519 15.698 1.80519 15.8485 1.82445 15.9061ZM1.77129 14.9949C1.74328 15.0167 1.71844 15.0428 1.6975 15.0723C1.6766 15.0428 1.65172 15.0167 1.62371 14.9949C1.65172 14.9731 1.67656 14.947 1.6975 14.9175C1.7184 14.947 1.74324 14.9731 1.77129 14.9949ZM2.16824 13.3092L1.69746 14.3685L1.22668 13.3092C1.1957 13.2396 1.17934 13.1625 1.17934 13.0863C1.17934 12.9797 1.24113 12.8865 1.32969 12.8595C1.40164 12.8373 1.47586 12.8492 1.5332 12.8917C1.59055 12.9341 1.62344 12.9993 1.62344 13.0704C1.62344 13.1595 1.56633 13.1889 1.54176 13.1975C1.50359 13.2108 1.4673 13.2031 1.45566 13.1882C1.44574 13.1756 1.4468 13.1412 1.48226 13.0854C1.50426 13.051 1.49422 13.0052 1.45973 12.9832C1.42516 12.9615 1.37957 12.9717 1.35754 13.006C1.26301 13.1542 1.31344 13.2469 1.33953 13.2801C1.39312 13.3477 1.49394 13.371 1.59035 13.3373C1.60133 13.3335 1.61246 13.3288 1.62344 13.3232V13.5104C1.62344 13.5103 1.62332 13.5103 1.62332 13.5103C1.62109 13.4713 1.58883 13.4405 1.54945 13.4405C1.50855 13.4405 1.47543 13.4736 1.47543 13.5146C1.47543 13.5628 1.50918 13.6466 1.62344 13.6725V13.8106C1.62344 13.8515 1.65652 13.8846 1.69746 13.8846C1.7384 13.8846 1.77148 13.8515 1.77148 13.8106V13.6725C1.88574 13.6466 1.91949 13.5628 1.91949 13.5146C1.91949 13.4737 1.88648 13.4381 1.84562 13.4381C1.80472 13.4381 1.77176 13.4688 1.77176 13.5097C1.77172 13.5098 1.77148 13.51 1.77144 13.5101V13.3233C1.78242 13.3289 1.79355 13.3336 1.80453 13.3374C1.90094 13.371 2.00172 13.3478 2.05535 13.2801C2.08144 13.2471 2.13191 13.1542 2.03734 13.006C2.01535 12.9716 1.96969 12.9615 1.93515 12.9833C1.90066 13.0053 1.89062 13.0511 1.91262 13.0855C1.94808 13.1413 1.94914 13.1757 1.93922 13.1883C1.9275 13.2032 1.89121 13.2108 1.85312 13.1976C1.82855 13.189 1.77144 13.1596 1.77144 13.0705C1.77144 12.9994 1.80433 12.9342 1.86168 12.8918C1.91914 12.8493 1.99351 12.8372 2.06519 12.8596C2.15371 12.8866 2.21554 12.9799 2.21554 13.0864C2.21562 13.1625 2.19929 13.2396 2.16824 13.3092ZM2.16824 12.2395C2.19922 12.3092 2.21558 12.3862 2.21558 12.4624C2.21558 12.569 2.15379 12.6622 2.06523 12.6892C1.9934 12.7116 1.91906 12.6995 1.86172 12.657C1.80437 12.6146 1.77148 12.5494 1.77148 12.4783C1.77148 12.3892 1.82859 12.3598 1.85316 12.3512C1.89125 12.3379 1.92758 12.3456 1.93926 12.3605C1.94918 12.3731 1.94812 12.4075 1.91265 12.4633C1.89066 12.4977 1.9007 12.5435 1.93519 12.5655C1.96996 12.5875 2.01558 12.5773 2.03738 12.5428C2.13191 12.3946 2.08148 12.3018 2.05539 12.2687C2.00176 12.201 1.90097 12.178 1.80457 12.2114C1.79359 12.2152 1.78246 12.22 1.77148 12.2255V12.0383L1.7716 12.0385C1.77383 12.0774 1.80609 12.1082 1.84547 12.1082C1.88637 12.1082 1.91949 12.0751 1.91949 12.0342C1.91949 11.9859 1.88574 11.9022 1.77148 11.8762V11.7382C1.77148 11.6973 1.7384 11.6641 1.69746 11.6641C1.65652 11.6641 1.62344 11.6972 1.62344 11.7382V11.8762C1.50918 11.9022 1.47543 11.9859 1.47543 12.0342C1.47543 12.0751 1.50844 12.1107 1.5493 12.1107C1.59019 12.1107 1.62316 12.08 1.62316 12.0391C1.6232 12.039 1.62344 12.0388 1.62344 12.0388L1.62348 12.2255C1.6125 12.2199 1.60137 12.2152 1.59039 12.2114C1.49398 12.178 1.39316 12.201 1.33957 12.2686C1.31348 12.3017 1.26301 12.3945 1.35758 12.5427C1.37957 12.5771 1.42523 12.5871 1.45976 12.5655C1.49426 12.5435 1.5043 12.4976 1.4823 12.4633C1.44684 12.4074 1.44578 12.373 1.4557 12.3605C1.46734 12.3456 1.50363 12.3379 1.5418 12.3512C1.56637 12.3597 1.62348 12.3892 1.62348 12.4783C1.62348 12.5494 1.59058 12.6146 1.53324 12.6569C1.47578 12.6994 1.40156 12.7116 1.32973 12.6892C1.24121 12.6621 1.17937 12.5689 1.17937 12.4624C1.17937 12.3862 1.1957 12.3091 1.22672 12.2394L1.6975 11.1802L2.16824 12.2395ZM1.77129 10.5539C1.74328 10.5757 1.71844 10.6017 1.6975 10.6312C1.6766 10.6017 1.65172 10.5757 1.62371 10.5539C1.65172 10.5321 1.67656 10.506 1.6975 10.4765C1.7184 10.5059 1.74324 10.532 1.77129 10.5539ZM2.16824 8.8682L1.69746 9.92741L1.22668 8.8682C1.1957 8.79851 1.17934 8.72148 1.17934 8.64527C1.17934 8.53871 1.24113 8.4455 1.32969 8.41847C1.40164 8.39621 1.47586 8.4082 1.5332 8.4507C1.59055 8.49308 1.62344 8.55824 1.62344 8.62937C1.62344 8.71843 1.56633 8.74788 1.54176 8.75644C1.50359 8.76988 1.4673 8.7621 1.45566 8.74718C1.44574 8.7346 1.4468 8.70019 1.48226 8.64437C1.50426 8.60995 1.49422 8.56413 1.45973 8.54218C1.42516 8.52038 1.37957 8.53046 1.35754 8.56492C1.26301 8.71312 1.31344 8.80589 1.33953 8.83902C1.39312 8.90667 1.49394 8.9298 1.59035 8.89624C1.60133 8.89245 1.61246 8.88773 1.62344 8.88214V9.06933L1.62332 9.06909C1.62109 9.03023 1.58883 8.99941 1.54945 8.99941C1.50855 8.99941 1.47543 9.03249 1.47543 9.07343C1.47543 9.12171 1.50918 9.20546 1.62344 9.2314V9.36948C1.62344 9.41038 1.65652 9.44351 1.69746 9.44351C1.7384 9.44351 1.77148 9.41042 1.77148 9.36948V9.2314C1.88574 9.20546 1.91949 9.12171 1.91949 9.07343C1.91949 9.03253 1.88648 8.99695 1.84562 8.99695C1.80472 8.99695 1.77176 9.02761 1.77176 9.06851C1.77172 9.06863 1.77148 9.06882 1.77148 9.06882L1.77144 8.8821C1.78242 8.88769 1.79355 8.89242 1.80453 8.8962C1.90094 8.92972 2.00172 8.90659 2.05535 8.83898C2.08144 8.80589 2.13191 8.71308 2.03734 8.56488C2.01535 8.53031 1.96969 8.52023 1.93515 8.54214C1.90066 8.56413 1.89062 8.60995 1.91262 8.64433C1.94808 8.70015 1.94914 8.73456 1.93922 8.74714C1.9275 8.76202 1.89121 8.76988 1.85312 8.7564C1.82855 8.74788 1.77144 8.71839 1.77144 8.62933C1.77144 8.5582 1.80433 8.493 1.86168 8.45066C1.91914 8.40816 1.99351 8.39617 2.06519 8.41843C2.15371 8.44546 2.21554 8.5387 2.21554 8.64523C2.21562 8.72148 2.19929 8.79851 2.16824 8.8682ZM2.16824 7.79839C2.19922 7.86808 2.21558 7.94511 2.21558 8.02132C2.21558 8.12789 2.15379 8.22109 2.06523 8.24812C1.9934 8.27054 1.91906 8.25839 1.86172 8.21589C1.80437 8.17351 1.77148 8.10835 1.77148 8.03722C1.77148 7.94816 1.82859 7.91871 1.85316 7.91015C1.89125 7.89683 1.92758 7.90449 1.93926 7.91941C1.94918 7.93199 1.94812 7.9664 1.91265 8.02222C1.89066 8.05664 1.9007 8.10242 1.93519 8.12441C1.96996 8.14621 2.01558 8.13624 2.03738 8.10167C2.13191 7.95347 2.08148 7.8607 2.05539 7.82757C2.00176 7.75992 1.90097 7.73679 1.80457 7.77035C1.79359 7.77414 1.78246 7.77886 1.77148 7.78445V7.59726C1.77148 7.5973 1.7716 7.59738 1.7716 7.59738C1.77383 7.63636 1.80609 7.66711 1.84547 7.66711C1.88637 7.66711 1.91949 7.63402 1.91949 7.59308C1.91949 7.5448 1.88574 7.46105 1.77148 7.43511V7.29703C1.77148 7.25613 1.7384 7.223 1.69746 7.223C1.65652 7.223 1.62344 7.25609 1.62344 7.29703V7.43511C1.50918 7.46105 1.47543 7.5448 1.47543 7.59308C1.47543 7.63398 1.50844 7.66957 1.5493 7.66957C1.59019 7.66957 1.62316 7.6389 1.62316 7.598C1.6232 7.59789 1.62344 7.59769 1.62348 7.59757V7.78441C1.6125 7.77882 1.60137 7.7741 1.59039 7.77031C1.49398 7.73679 1.39316 7.75992 1.33957 7.82753C1.31348 7.86062 1.26301 7.95343 1.35758 8.10164C1.37957 8.13605 1.42523 8.14605 1.45976 8.12437C1.49426 8.10238 1.5043 8.05656 1.4823 8.02218C1.44684 7.96636 1.44578 7.93195 1.4557 7.91937C1.46734 7.90449 1.50363 7.89683 1.5418 7.91011C1.56637 7.91863 1.62348 7.94812 1.62348 8.03718C1.62348 8.10832 1.59058 8.17351 1.53324 8.21585C1.47578 8.25835 1.40156 8.2705 1.32973 8.24808C1.24121 8.22105 1.17937 8.12781 1.17937 8.02128C1.17937 7.94507 1.1957 7.86804 1.22672 7.79835L1.6975 6.73914L2.16824 7.79839ZM1.62367 6.11277C1.65168 6.09098 1.67652 6.06488 1.69746 6.03539C1.71836 6.06488 1.74324 6.09094 1.77125 6.11277C1.74324 6.13457 1.7184 6.16066 1.69746 6.19015C1.67656 6.16066 1.65172 6.13457 1.62367 6.11277Z" fill="#FFE15A"/>
<path d="M10.5705 11.4614C11.5544 11.4614 12.352 10.6638 12.352 9.67992C12.352 8.69603 11.5544 7.89844 10.5705 7.89844C9.58666 7.89844 8.78906 8.69603 8.78906 9.67992C8.78906 10.6638 9.58666 11.4614 10.5705 11.4614Z" fill="#FFE15A"/>
<path d="M10.7048 7.40867C10.7048 7.48246 10.6449 7.5423 10.5711 7.5423C10.4973 7.5423 10.4375 7.48246 10.4375 7.40867C10.4375 7.33488 10.5711 7.00781 10.5711 7.00781C10.5711 7.00781 10.7048 7.33488 10.7048 7.40867Z" fill="#FFE15A"/>
<path d="M10.4375 11.952C10.4375 11.8782 10.4973 11.8184 10.5711 11.8184C10.6449 11.8184 10.7048 11.8782 10.7048 11.952C10.7048 12.0258 10.5711 12.3528 10.5711 12.3528C10.5711 12.3528 10.4375 12.0258 10.4375 11.952Z" fill="#FFE15A"/>
<path d="M12.8446 9.81414C12.7708 9.81414 12.7109 9.7543 12.7109 9.68051C12.7109 9.60672 12.7708 9.54688 12.8446 9.54688C12.9184 9.54688 13.2454 9.68051 13.2454 9.68051C13.2454 9.68051 12.9184 9.81414 12.8446 9.81414Z" fill="#FFE15A"/>
<path d="M8.2993 9.54688C8.37309 9.54688 8.43293 9.60672 8.43293 9.68051C8.43293 9.7543 8.37309 9.81414 8.2993 9.81414C8.22551 9.81414 7.89844 9.68051 7.89844 9.68051C7.89844 9.68051 8.22551 9.54688 8.2993 9.54688Z" fill="#FFE15A"/>
<path d="M12.275 8.16898C12.2228 8.22117 12.1383 8.22117 12.086 8.16898C12.0338 8.1168 12.0338 8.03223 12.086 7.98C12.1382 7.92777 12.464 7.79102 12.464 7.79102C12.464 7.79102 12.3272 8.1168 12.275 8.16898Z" fill="#FFE15A"/>
<path d="M8.86863 11.1925C8.92082 11.1403 9.00539 11.1403 9.05762 11.1925C9.10984 11.2446 9.1098 11.3292 9.05762 11.3814C9.00543 11.4337 8.67969 11.5704 8.67969 11.5704C8.67969 11.5704 8.81645 11.2447 8.86863 11.1925Z" fill="#FFE15A"/>
<path d="M12.086 11.3815C12.0338 11.3293 12.0338 11.2447 12.086 11.1925C12.1382 11.1402 12.2228 11.1403 12.275 11.1925C12.3272 11.2447 12.464 11.5704 12.464 11.5704C12.464 11.5704 12.1382 11.4336 12.086 11.3815Z" fill="#FFE15A"/>
<path d="M9.05766 7.97996C9.10984 8.03215 9.10984 8.11672 9.05766 8.16894C9.00547 8.22117 8.9209 8.22113 8.86867 8.16894C8.81644 8.11676 8.67969 7.79102 8.67969 7.79102C8.67969 7.79102 9.00547 7.92781 9.05766 7.97996Z" fill="#FFE15A"/>
<path d="M9.82375 7.53117C9.85199 7.59937 9.81961 7.6775 9.75141 7.70574C9.6832 7.73398 9.60508 7.7016 9.57684 7.6334C9.54859 7.56519 9.54688 7.21191 9.54688 7.21191C9.54688 7.21191 9.79551 7.46297 9.82375 7.53117Z" fill="#FFE15A"/>
<path d="M11.3149 11.8303C11.2867 11.7621 11.319 11.684 11.3872 11.6557C11.4554 11.6275 11.5336 11.6599 11.5618 11.7281C11.59 11.7963 11.5918 12.1495 11.5918 12.1495C11.5918 12.1495 11.3431 11.8985 11.3149 11.8303Z" fill="#FFE15A"/>
<path d="M12.7238 8.93508C12.6556 8.96332 12.5775 8.93094 12.5493 8.86273C12.521 8.79453 12.5534 8.71641 12.6216 8.68816C12.6898 8.65992 13.0431 8.6582 13.0431 8.6582C13.0431 8.6582 12.792 8.9068 12.7238 8.93508Z" fill="#FFE15A"/>
<path d="M8.42082 10.4262C8.48902 10.398 8.56715 10.4304 8.59539 10.4986C8.62363 10.5668 8.59125 10.6449 8.52305 10.6731C8.45484 10.7014 8.10156 10.7031 8.10156 10.7031C8.10156 10.7031 8.35262 10.4545 8.42082 10.4262Z" fill="#FFE15A"/>
<path d="M11.5618 7.63336C11.5335 7.70156 11.4554 7.73391 11.3872 7.7057C11.319 7.67746 11.2867 7.5993 11.3149 7.53113C11.3431 7.46297 11.5917 7.21191 11.5917 7.21191C11.5917 7.21191 11.59 7.56519 11.5618 7.63336Z" fill="#FFE15A"/>
<path d="M9.5768 11.728C9.60504 11.6598 9.6832 11.6275 9.75137 11.6557C9.81957 11.6839 9.85191 11.7621 9.82371 11.8303C9.79547 11.8985 9.54688 12.1495 9.54688 12.1495C9.54688 12.1495 9.54855 11.7962 9.5768 11.728Z" fill="#FFE15A"/>
<path d="M12.6216 10.6731C12.5534 10.6449 12.521 10.5667 12.5493 10.4985C12.5775 10.4303 12.6557 10.398 12.7238 10.4262C12.792 10.4544 13.043 10.703 13.043 10.703C13.043 10.703 12.6897 10.7014 12.6216 10.6731Z" fill="#FFE15A"/>
<path d="M8.52301 8.68813C8.59121 8.71637 8.62355 8.79453 8.59535 8.86269C8.56711 8.93086 8.48894 8.96324 8.42078 8.93504C8.35262 8.9068 8.10156 8.6582 8.10156 8.6582C8.10156 8.6582 8.45488 8.65984 8.52301 8.68813Z" fill="#FFE15A"/>
<path d="M10.2641 7.42668C10.2785 7.49906 10.2316 7.56941 10.1591 7.58379C10.0868 7.5982 10.0164 7.55121 10.002 7.47879C9.98761 7.40641 10.0549 7.05957 10.0549 7.05957C10.0549 7.05957 10.2497 7.3543 10.2641 7.42668Z" fill="#FFE15A"/>
<path d="M10.8854 11.9341C10.871 11.8617 10.918 11.7914 10.9904 11.777C11.0628 11.7626 11.1331 11.8096 11.1475 11.882C11.1619 11.9544 11.0947 12.3012 11.0947 12.3012C11.0947 12.3012 10.8998 12.0065 10.8854 11.9341Z" fill="#FFE15A"/>
<path d="M12.8238 9.36863C12.7514 9.38304 12.681 9.33605 12.6667 9.26363C12.6522 9.1912 12.6992 9.12089 12.7717 9.10652C12.844 9.0921 13.1909 9.15937 13.1909 9.15937C13.1909 9.15937 12.8962 9.35425 12.8238 9.36863Z" fill="#FFE15A"/>
<path d="M8.32023 9.99283C8.39262 9.97842 8.46297 10.0254 8.47734 10.0978C8.49176 10.1703 8.44476 10.2406 8.37234 10.2549C8.29996 10.2694 7.95312 10.2021 7.95312 10.2021C7.95312 10.2021 8.24785 10.0072 8.32023 9.99283Z" fill="#FFE15A"/>
<path d="M11.9479 7.86656C11.9069 7.92793 11.8239 7.94441 11.7625 7.9034C11.7011 7.86238 11.6847 7.77941 11.7257 7.71805C11.7667 7.65668 12.0595 7.45898 12.0595 7.45898C12.0595 7.45898 11.9888 7.80516 11.9479 7.86656Z" fill="#FFE15A"/>
<path d="M9.19754 11.4949C9.23852 11.4336 9.32152 11.4171 9.38289 11.4581C9.44426 11.4991 9.46074 11.5821 9.41973 11.6434C9.37875 11.7048 9.08594 11.9025 9.08594 11.9025C9.08594 11.9025 9.15656 11.5563 9.19754 11.4949Z" fill="#FFE15A"/>
<path d="M12.3875 11.0533C12.3261 11.0124 12.3097 10.9293 12.3507 10.868C12.3917 10.8066 12.4747 10.7901 12.536 10.8311C12.5974 10.8721 12.7951 11.1649 12.7951 11.1649C12.7951 11.1649 12.4489 11.0943 12.3875 11.0533Z" fill="#FFE15A"/>
<path d="M8.75914 8.30789C8.82051 8.34887 8.83699 8.43187 8.79598 8.49324C8.755 8.55461 8.67199 8.57109 8.61062 8.53008C8.54926 8.48906 8.35156 8.19629 8.35156 8.19629C8.35156 8.19629 8.69781 8.26691 8.75914 8.30789Z" fill="#FFE15A"/>
<path d="M9.41973 7.71801C9.4607 7.77937 9.44422 7.86234 9.38289 7.90336C9.32156 7.94437 9.23855 7.92785 9.19754 7.86652C9.15656 7.80516 9.08594 7.45898 9.08594 7.45898C9.08594 7.45898 9.37875 7.65668 9.41973 7.71801Z" fill="#FFE15A"/>
<path d="M11.7256 11.6434C11.6847 11.5821 11.7012 11.4991 11.7625 11.4581C11.8238 11.4171 11.9068 11.4336 11.9478 11.4949C11.9888 11.5563 12.0594 11.9024 12.0594 11.9024C12.0594 11.9024 11.7667 11.7048 11.7256 11.6434Z" fill="#FFE15A"/>
<path d="M12.536 8.53008C12.4746 8.57105 12.3917 8.55457 12.3506 8.49324C12.3097 8.43187 12.3262 8.34891 12.3875 8.30789C12.4489 8.26691 12.795 8.19629 12.795 8.19629C12.795 8.19629 12.5974 8.4891 12.536 8.53008Z" fill="#FFE15A"/>
<path d="M8.61059 10.8311C8.67195 10.7901 8.75492 10.8066 8.79594 10.868C8.83691 10.9293 8.82043 11.0123 8.7591 11.0533C8.69773 11.0943 8.35156 11.1649 8.35156 11.1649C8.35156 11.1649 8.54922 10.8721 8.61059 10.8311Z" fill="#FFE15A"/>
<path d="M11.1475 7.47879C11.1331 7.55117 11.0628 7.5982 10.9904 7.58379C10.918 7.56937 10.871 7.49906 10.8854 7.42668C10.8998 7.3543 11.0947 7.05957 11.0947 7.05957C11.0947 7.05957 11.1619 7.40641 11.1475 7.47879Z" fill="#FFE15A"/>
<path d="M10.002 11.882C10.0164 11.8096 10.0867 11.7626 10.1591 11.777C10.2315 11.7914 10.2785 11.8617 10.2641 11.9341C10.2497 12.0065 10.0549 12.3012 10.0549 12.3012C10.0549 12.3012 9.98764 11.9544 10.002 11.882Z" fill="#FFE15A"/>
<path d="M12.7717 10.2549C12.6993 10.2405 12.6522 10.1702 12.6667 10.0978C12.6811 10.0254 12.7514 9.97842 12.8238 9.99283C12.8962 10.0072 13.1909 10.2021 13.1909 10.2021C13.1909 10.2021 12.844 10.2693 12.7717 10.2549Z" fill="#FFE15A"/>
<path d="M8.37234 9.10651C8.44473 9.12092 8.49176 9.19123 8.47734 9.26362C8.46293 9.336 8.39262 9.38303 8.32023 9.36862C8.24785 9.3542 7.95312 9.15936 7.95312 9.15936C7.95312 9.15936 8.29996 9.09213 8.37234 9.10651Z" fill="#FFE15A"/>
<path d="M14.7638 10.1496C14.7116 10.1277 14.652 10.1528 14.6302 10.2047C14.6302 10.205 14.6302 10.205 14.6302 10.205C14.6298 10.2059 14.6278 10.2107 14.6243 10.2189C14.5471 10.3993 14.3873 10.663 14.226 10.911C14.3763 10.4273 14.5137 9.91062 14.5232 9.87429C14.5376 9.82004 14.5055 9.76433 14.4513 9.74961C14.397 9.73504 14.3412 9.7666 14.326 9.82062C14.2559 10.0719 14.1125 10.4025 13.9802 10.6825C14.0045 10.3703 14.0091 10.0812 14.0094 10.0603C14.0102 10.005 13.9669 9.95929 13.9116 9.95668C13.8596 9.95828 13.8094 9.99621 13.8053 10.0514C13.6745 11.851 11.9429 12.656 11.7743 12.73C11.6861 12.7388 11.2752 12.7851 10.9023 12.9146C10.86 12.9293 10.824 12.944 10.7882 12.9586C10.7748 12.9536 10.7605 12.9508 10.7455 12.9517C9.6009 13.0345 8.68824 12.565 8.03231 11.5591C7.53672 10.799 7.38129 10.0012 7.37977 9.9932C7.3693 9.93773 7.31617 9.90199 7.26047 9.91179C7.205 9.92234 7.16856 9.97562 7.17907 10.0311C7.18321 10.0531 7.25141 10.4014 7.43922 10.8597C7.18793 10.463 7.01282 9.98246 6.95118 9.73218C6.94993 9.72718 6.94672 9.72339 6.94485 9.71879C6.94196 9.71172 6.93953 9.70461 6.93528 9.69847C6.93227 9.69414 6.92832 9.69097 6.92477 9.68718C6.91918 9.68129 6.91383 9.6755 6.907 9.67109C6.90309 9.66855 6.89871 9.6673 6.89446 9.66531C6.88692 9.66179 6.87953 9.65832 6.87114 9.65672C6.86532 9.65558 6.85938 9.65632 6.85332 9.65621C6.84719 9.65613 6.84141 9.65457 6.83512 9.65566C6.83375 9.6559 6.8327 9.65683 6.83133 9.65714C6.83 9.65742 6.82875 9.65699 6.82743 9.65726C6.82196 9.65859 6.81778 9.66203 6.81278 9.66418C6.80641 9.66695 6.79989 9.66902 6.7943 9.67289C6.78879 9.67668 6.78469 9.6816 6.78012 9.68632C6.77555 9.69101 6.77079 9.69515 6.76719 9.70058C6.76356 9.70609 6.76161 9.7123 6.75903 9.71843C6.75657 9.72441 6.75371 9.73004 6.75243 9.73648C6.7511 9.74308 6.75168 9.74988 6.75172 9.75679C6.75172 9.7623 6.7502 9.76757 6.75118 9.7732C6.75157 9.77562 6.75235 9.77804 6.75278 9.78039V9.78078C6.75289 9.78121 6.75305 9.78179 6.75317 9.78226C6.81637 10.1546 6.967 10.5407 7.10321 10.835C6.88692 10.5896 6.70618 10.3068 6.64211 10.1394C6.64028 10.1345 6.63657 10.1311 6.63407 10.1267C6.63028 10.12 6.62696 10.113 6.62184 10.1075C6.61821 10.1035 6.61379 10.1009 6.60965 10.0976C6.60344 10.0926 6.59754 10.0875 6.59036 10.0841C6.58575 10.0819 6.58075 10.0812 6.57586 10.0797C6.56832 10.0774 6.56102 10.0749 6.55301 10.0744C6.54672 10.074 6.54047 10.0756 6.53411 10.0764C6.52821 10.0771 6.52239 10.0764 6.51653 10.0782C6.51539 10.0786 6.51461 10.0795 6.51356 10.0799C6.51247 10.0802 6.51137 10.08 6.51028 10.0804C6.50473 10.0825 6.50079 10.0866 6.49582 10.0896C6.49 10.093 6.48379 10.0959 6.47883 10.1003C6.47375 10.1049 6.47024 10.1105 6.46625 10.116C6.46247 10.1211 6.45825 10.1257 6.45543 10.1314C6.4525 10.1373 6.45141 10.1438 6.44973 10.1503C6.44805 10.1566 6.44582 10.1624 6.4454 10.169C6.44493 10.1756 6.44657 10.1822 6.44743 10.1889C6.44817 10.1947 6.44739 10.2004 6.44918 10.2061C6.56036 10.5647 6.8277 10.9914 7.03715 11.2919C6.86262 11.1574 6.73434 11.0119 6.69711 10.968C6.69309 10.9633 6.68914 10.9585 6.68512 10.9537C6.64911 10.9104 6.58547 10.9042 6.54184 10.9395C6.49836 10.975 6.49153 11.0389 6.52668 11.0826C6.5286 11.085 6.53625 11.0946 6.54907 11.1095C6.70235 11.2919 6.86934 11.4621 7.02063 11.6058L6.81368 11.5176C6.76649 11.4973 6.71102 11.5156 6.6852 11.5605C6.65934 11.6054 6.67102 11.6623 6.71243 11.6934C6.73258 11.7084 7.09907 11.9821 7.41633 12.144C7.38641 12.1458 7.35129 12.1436 7.31199 12.1406C7.26403 12.136 7.21684 12.1703 7.20516 12.219C7.19367 12.2678 7.21922 12.3178 7.26563 12.3369C7.27344 12.3401 7.37012 12.38 7.48949 12.4225C7.46164 12.4339 7.43949 12.4572 7.43032 12.4875C7.41657 12.5328 7.4359 12.5819 7.47699 12.6055C7.4877 12.6117 7.63211 12.6945 7.81082 12.7679C7.80606 12.7753 7.80215 12.7832 7.79922 12.792C7.78524 12.8349 7.80121 12.882 7.83844 12.9078C7.86945 12.9291 8.5634 13.4 9.37387 13.4C9.42707 13.4 9.48082 13.398 9.53488 13.3937C9.59105 13.3892 9.63308 13.34 9.62859 13.2837C9.6241 13.2274 9.57531 13.1849 9.51855 13.1901C9.00941 13.2316 8.51891 13.0405 8.22719 12.8944C8.2657 12.885 8.28785 12.8764 8.29336 12.8742C8.33836 12.8558 8.3643 12.8085 8.35551 12.7609C8.34672 12.7132 8.30563 12.6782 8.25703 12.6772C8.13859 12.6748 7.97457 12.6171 7.83328 12.5553C7.88664 12.5285 7.91781 12.503 7.92055 12.5008C7.95129 12.475 7.96426 12.4339 7.95379 12.3952C7.94324 12.3567 7.91106 12.3278 7.8716 12.3214C7.8282 12.3142 7.7741 12.3002 7.71746 12.2831C7.77254 12.2514 7.79598 12.2164 7.80496 12.1987C7.81914 12.1703 7.81945 12.1372 7.80586 12.1087C7.79219 12.0801 7.76617 12.0596 7.7352 12.053C7.70848 12.0472 7.67821 12.0374 7.64551 12.0246C7.65149 12.0187 7.65699 12.0119 7.66145 12.0041C7.68746 11.96 7.67672 11.9033 7.63633 11.8716C7.63422 11.87 7.55492 11.8078 7.43485 11.7042C7.45391 11.6972 7.47074 11.6842 7.48293 11.6667C7.50867 11.6296 7.50692 11.5799 7.47864 11.5447C7.47637 11.5419 7.39696 11.4421 7.2875 11.2904C7.32364 11.3185 7.35973 11.3471 7.39582 11.3703C7.41282 11.3811 7.43203 11.3865 7.4511 11.3865C7.47696 11.3865 7.50246 11.3768 7.52211 11.3578C7.5302 11.35 7.53653 11.341 7.54153 11.3314C7.60352 11.3976 7.66864 11.4577 7.73703 11.509C7.74594 11.5157 7.75676 11.5156 7.76676 11.5189C7.79574 11.5675 7.8259 11.6162 7.85754 11.6649C8.47797 12.6195 9.35277 13.1308 10.402 13.1615C10.3054 13.2202 10.2005 13.2808 10.0345 13.3455C9.9982 13.3596 9.96617 13.3738 9.93398 13.388C9.91843 13.391 9.90386 13.3966 9.89172 13.4063C9.60187 13.5405 9.48187 13.673 9.4332 13.7658C9.38461 13.858 9.42652 13.9525 9.48586 14.0016C9.5043 14.0168 9.52777 14.0246 9.55129 14.0246C9.56746 14.0246 9.58363 14.021 9.59828 14.0136C9.63441 13.9956 9.65855 13.9575 9.65695 13.9174C9.66113 13.9128 9.6789 13.8981 9.73457 13.8962C9.77515 13.8928 9.86058 13.902 9.96027 13.91C10.0551 13.9178 10.1689 13.9267 10.2898 13.9329C10.2141 14.0211 10.1262 14.1233 10.1262 14.1233C10.0998 14.1541 10.094 14.1975 10.1116 14.2341C10.1292 14.2708 10.1673 14.2935 10.2071 14.2921C10.2879 14.2893 10.3427 14.2877 10.3787 14.2869C10.4102 14.3281 10.4487 14.3444 10.4736 14.3508C10.5438 14.3687 10.6139 14.3406 10.6666 14.3073C10.7065 14.336 10.7464 14.3482 10.7781 14.3528C10.8494 14.3626 10.9155 14.3418 10.9632 14.3183C11.0127 14.3502 11.0612 14.3584 11.0982 14.3584C11.0987 14.3584 11.0993 14.3584 11.0998 14.3584C11.1796 14.358 11.2493 14.3195 11.2987 14.2817C11.3423 14.3077 11.384 14.316 11.4162 14.3175C11.4894 14.3201 11.55 14.2919 11.5903 14.2656C11.7343 14.2945 11.8584 14.2267 11.9404 14.1518C11.9778 14.1736 12.0134 14.179 12.0418 14.1776C12.1147 14.175 12.1703 14.1307 12.2059 14.091C12.3692 14.1107 12.4863 14.0806 12.554 14.0002C12.5909 13.9565 12.6059 13.9072 12.61 13.8623C13.0629 13.8597 13.1039 13.6124 13.1072 13.5819C13.1101 13.5541 13.1017 13.5264 13.0837 13.5051C13.0657 13.4838 13.0396 13.4706 13.0118 13.469L11.8245 13.3976C11.7748 13.394 11.7305 13.4273 11.7189 13.4758C11.7187 13.4766 11.6985 13.552 11.6352 13.6123C11.5499 13.6937 11.4127 13.7367 11.2634 13.7594C11.264 13.7458 11.2621 13.7319 11.2568 13.7183C11.2365 13.6656 11.1772 13.64 11.1247 13.6598C10.8796 13.7549 10.4827 13.743 10.1723 13.7214C10.2199 13.6825 10.2772 13.6439 10.323 13.6188C10.3618 13.5974 10.3825 13.5537 10.3743 13.5103C10.3684 13.4787 10.3455 13.4567 10.318 13.4425C10.4043 13.3989 10.4751 13.3568 10.5422 13.3159C10.6588 13.2445 10.7689 13.1772 10.9694 13.1076C11.3566 12.9731 11.8046 12.9322 11.8091 12.9317C11.8192 12.9309 11.8292 12.9283 11.8387 12.9246C11.8546 12.918 13.1183 12.3886 13.7136 11.1671C13.7058 11.204 13.6975 11.2378 13.6883 11.2673C13.6728 11.3176 13.6979 11.3712 13.7464 11.3916C13.7839 11.4073 13.8265 11.3991 13.8554 11.3724C13.8178 11.4716 13.7837 11.5496 13.756 11.5957C13.7276 11.6426 13.7413 11.7035 13.7869 11.7338C13.7976 11.7408 13.8091 11.7455 13.8208 11.7484C13.7747 11.8158 13.728 11.8796 13.6814 11.9381C13.6504 11.977 13.6522 12.0325 13.6846 12.0692C13.6046 12.153 13.5337 12.2221 13.4798 12.266C13.4446 12.2945 13.4331 12.3422 13.4492 12.383C13.3973 12.4127 13.3546 12.4337 13.325 12.4426C13.2753 12.4576 13.2448 12.5076 13.2541 12.5587C13.259 12.5857 13.2742 12.6084 13.2951 12.6234C13.2326 12.6401 13.1643 12.6563 13.0901 12.671C13.0483 12.6794 13.016 12.7128 13.0092 12.7548C13.0024 12.7969 13.0224 12.8389 13.0593 12.86C13.0625 12.8618 13.0974 12.8816 13.1509 12.9043C12.9532 12.9839 12.6003 13.0879 12.0212 13.145C11.9651 13.1505 11.924 13.2007 11.9296 13.2567C11.9351 13.3128 11.9836 13.3517 12.0414 13.3485C13.1407 13.2398 13.4801 12.9646 13.494 12.9528C13.5257 12.9262 13.5383 12.883 13.5257 12.8435C13.5173 12.8173 13.499 12.7962 13.4754 12.784C13.8266 12.6734 13.9774 12.5511 13.9853 12.5445C14.0238 12.5126 14.0335 12.4573 14.0081 12.414C13.9826 12.3707 13.9294 12.3519 13.883 12.3707C13.87 12.3757 13.8491 12.3809 13.8227 12.386C14.0584 12.2246 14.3086 12.0324 14.4187 11.9466C14.438 11.9323 14.4556 11.9185 14.471 11.9055C14.5138 11.8696 14.5198 11.8061 14.4845 11.7628C14.4495 11.7198 14.3857 11.7125 14.342 11.7471C14.326 11.7596 14.3094 11.7726 14.2923 11.786C14.2415 11.8237 14.1766 11.8664 14.1057 11.9103C14.3732 11.6066 14.6425 11.2773 14.7194 11.1827C14.7264 11.1741 14.7333 11.1656 14.7403 11.157C14.7756 11.1131 14.7687 11.0488 14.7248 11.0135C14.6808 10.9776 14.6164 10.985 14.5812 11.0287L14.581 11.0289L14.5809 11.0291C14.579 11.0313 14.5703 11.0421 14.5558 11.0601C14.4752 11.1584 14.3903 11.2537 14.3066 11.3426C14.5791 10.8487 14.7855 10.3626 14.8157 10.2906C14.8168 10.288 14.8178 10.2854 14.8189 10.2828C14.8405 10.2311 14.8159 10.1712 14.7638 10.1496ZM9.97515 13.5937L10.003 13.5973C9.96883 13.6293 9.94097 13.6651 9.91886 13.7022C9.87035 13.6983 9.82633 13.6948 9.79183 13.6933C9.83937 13.6623 9.90054 13.6285 9.97515 13.5937Z" fill="#FFE15A"/>
</svg>
