<svg width="20" height="21" viewBox="0 0 20 21" fill="none" xmlns="http://www.w3.org/2000/svg">
<path d="M0 3.93945H20V17.0601H0V3.93945Z" fill="white"/>
<path d="M9.15563 3.93945V9.4632H0V11.802H9.15563V17.0607H11.01V11.802H20V9.4632H11.01V3.93945H9.15563Z" fill="#BD0034"/>
<path d="M8.53688 3.93945H1.5625L8.53688 8.35008V3.93945Z" fill="#1A237B"/>
<path d="M0 8.68328H4.91562L0 5.56641V8.68328Z" fill="#1A237B"/>
<path d="M0 3.9375V4.705L5.89937 8.38813H7.34812C7.34812 8.38813 1.53375 4.78688 0.1525 3.9375H0Z" fill="#BD0034"/>
<path d="M8.53688 17.061H1.5625L8.53688 12.6504V17.061Z" fill="#1A237B"/>
<path d="M0 12.3164H4.91562L0 15.4333V12.3164Z" fill="#1A237B"/>
<path d="M0 17.0629V16.2954L5.89937 12.6123H7.34812C7.34812 12.6123 1.53375 16.2136 0.1525 17.0629H0Z" fill="#BD0034"/>
<path d="M11.4609 3.93945H18.4353L11.4609 8.35008V3.93945Z" fill="#1A237B"/>
<path d="M20.0016 8.68328H15.0859L20.0016 5.56641V8.68328Z" fill="#1A237B"/>
<path d="M19.9966 3.9375V4.705L14.0972 8.38813H12.6484C12.6484 8.38813 18.4609 4.78687 19.8441 3.93937L19.9966 3.9375Z" fill="#BD0034"/>
<path d="M11.4609 17.061H18.4353L11.4609 12.6504V17.061Z" fill="#1A237B"/>
<path d="M20.0016 12.3164H15.0859L20.0016 15.4333V12.3164Z" fill="#1A237B"/>
<path d="M19.9966 17.0629V16.2954L14.0972 12.6123H12.6484C12.6484 12.6123 18.4609 16.2136 19.8441 17.0611L19.9966 17.0629Z" fill="#BD0034"/>
</svg>
